<?xml version="1.0" standalone="no"?>
<!DOCTYPE svg PUBLIC "-//W3C//DTD SVG 20010904//EN"
 "http://www.w3.org/TR/2001/REC-SVG-20010904/DTD/svg10.dtd">
<svg version="1.0" xmlns="http://www.w3.org/2000/svg"
 width="2092.000000pt" height="2092.000000pt" viewBox="0 0 2092.000000 2092.000000"
 preserveAspectRatio="xMidYMid meet">
<metadata>
Created by potrace 1.14, written by Peter Selinger 2001-2017
</metadata>
<g transform="translate(0.000000,2092.000000) scale(0.100000,-0.100000)"
fill="#000000" stroke="none">
<path d="M263 13828 c-6 -7 -25 -44 -43 -83 -57 -122 -200 -419 -211 -438 -6
-11 -9 -20 -7 -22 2 -2 41 -21 88 -43 84 -39 233 -110 505 -242 341 -165 380
-184 385 -185 3 -1 45 -20 93 -43 49 -23 93 -42 98 -42 5 0 9 -4 9 -10 0 -5 4
-10 10 -10 8 0 83 -35 420 -197 63 -31 165 -79 225 -108 126 -60 339 -163 500
-241 61 -29 122 -58 135 -63 14 -6 32 -15 40 -19 129 -73 410 -166 635 -211
187 -37 279 -45 510 -46 217 0 343 10 485 40 14 3 41 8 60 11 48 8 172 40 250
66 36 12 66 21 67 20 2 -1 23 7 48 18 25 11 49 20 53 21 24 6 218 93 407 184
88 43 205 99 260 125 55 26 161 77 235 113 74 35 196 94 270 129 274 132 315
152 320 157 3 3 14 8 25 9 11 2 22 8 23 13 2 5 8 9 12 9 5 0 53 21 107 46 184
87 358 146 493 169 19 3 43 8 53 11 52 16 261 31 397 29 156 -3 195 -6 305
-26 33 -7 70 -13 82 -14 95 -12 332 -97 513 -183 156 -74 361 -173 480 -231
57 -28 110 -51 117 -51 7 0 13 -4 13 -10 0 -5 4 -10 9 -10 5 0 76 -32 158 -71
81 -39 193 -93 248 -119 55 -26 172 -82 260 -125 88 -42 178 -83 199 -91 22
-8 44 -18 50 -23 6 -5 27 -14 46 -19 19 -6 75 -25 125 -42 49 -17 99 -32 110
-35 11 -2 54 -13 96 -24 42 -11 96 -22 120 -26 24 -3 51 -8 59 -10 16 -5 84
-14 140 -20 19 -2 58 -6 85 -10 67 -8 345 -8 420 0 33 3 79 8 102 10 40 4 128
18 198 30 17 3 39 8 50 10 62 11 213 53 295 82 52 19 100 35 105 37 38 11 179
74 260 117 98 51 256 134 350 184 44 24 105 56 135 72 30 15 57 31 60 35 3 3
18 10 33 13 15 4 27 11 27 15 0 4 17 15 38 24 47 22 176 90 208 110 13 9 30
16 39 16 8 0 15 4 15 8 0 4 15 15 33 23 17 9 97 50 177 91 165 85 346 155 475
183 11 2 31 6 45 9 152 34 220 40 435 41 178 0 236 -4 325 -20 14 -3 41 -7 60
-10 19 -3 51 -10 70 -15 19 -5 46 -11 60 -14 14 -2 37 -9 53 -15 15 -6 27 -8
27 -5 0 4 6 2 13 -3 6 -6 24 -13 39 -17 15 -3 40 -11 55 -18 15 -6 30 -12 33
-13 3 -1 22 -9 44 -18 21 -9 40 -17 42 -17 3 0 50 -22 399 -190 289 -139 376
-180 386 -180 5 0 9 -4 9 -10 0 -5 3 -9 8 -8 7 2 113 -48 321 -150 55 -28 102
-48 104 -46 2 3 10 -2 17 -11 7 -8 16 -15 21 -15 5 0 73 -31 152 -68 137 -66
334 -146 372 -152 3 -1 20 -7 40 -16 19 -8 35 -12 35 -9 0 3 9 1 21 -5 11 -6
28 -13 37 -15 9 -2 60 -13 112 -25 124 -28 119 -27 181 -35 30 -4 57 -9 60
-11 3 -2 48 -7 100 -11 207 -16 519 -6 659 22 14 3 43 8 65 11 121 17 382 94
530 154 69 28 366 171 375 180 3 3 138 72 300 153 162 82 343 173 402 203 60
30 109 53 110 52 2 -2 17 6 33 18 17 11 46 27 65 34 19 8 37 16 40 20 3 3 133
70 290 148 157 79 402 203 545 275 143 72 263 130 268 129 4 -1 7 3 7 8 0 6 6
10 13 10 6 0 22 8 34 18 l23 17 -71 140 c-39 77 -76 146 -82 154 -7 8 -11 16
-9 18 1 2 -14 36 -35 76 -20 39 -37 74 -38 77 0 3 -10 23 -21 44 -13 24 -24
35 -28 27 -4 -6 -16 -11 -26 -11 -10 0 -20 -3 -22 -7 -1 -5 -138 -75 -303
-158 -164 -82 -331 -167 -370 -188 -38 -21 -71 -38 -73 -37 -1 0 -25 -11 -52
-25 -27 -14 -53 -25 -56 -24 -4 0 -10 -3 -13 -8 -7 -10 -285 -148 -290 -144
-2 1 -7 -1 -10 -6 -3 -5 -175 -94 -381 -198 -206 -104 -472 -237 -590 -297
-118 -59 -240 -118 -270 -129 -89 -34 -185 -68 -211 -73 -13 -3 -59 -14 -102
-25 -43 -11 -101 -23 -129 -26 -28 -4 -60 -9 -72 -11 -70 -13 -317 -19 -421
-9 -210 19 -324 44 -530 115 -91 32 -136 52 -365 163 -91 44 -210 101 -265
127 -157 75 -360 172 -480 231 -60 29 -113 52 -117 51 -3 -1 -12 5 -18 13 -7
8 -16 15 -21 15 -5 0 -75 32 -155 70 -81 39 -151 70 -155 70 -5 0 -9 4 -9 10
0 5 -3 9 -7 8 -8 -1 -28 6 -108 42 -62 27 -118 50 -135 55 -3 0 -49 15 -102
33 -135 44 -286 81 -403 97 -23 3 -51 7 -64 10 -127 24 -573 24 -693 -1 -13
-2 -39 -7 -58 -10 -19 -2 -46 -7 -60 -10 -14 -2 -38 -7 -55 -10 -16 -3 -66
-14 -110 -25 -44 -11 -84 -21 -90 -22 -5 -2 -16 -6 -22 -10 -7 -5 -13 -6 -13
-2 0 3 -16 -1 -35 -9 -20 -9 -39 -15 -43 -16 -6 0 -58 -18 -112 -38 -8 -3 -17
-6 -20 -7 -3 0 -27 -11 -54 -23 -27 -12 -51 -22 -53 -22 -6 0 -229 -112 -293
-147 -80 -44 -206 -112 -280 -150 -36 -19 -92 -49 -126 -67 -33 -18 -107 -58
-165 -88 -57 -31 -140 -75 -184 -99 -165 -89 -281 -149 -305 -159 -14 -6 -32
-13 -40 -17 -8 -3 -17 -7 -20 -8 -3 -1 -18 -7 -35 -14 -82 -35 -229 -82 -297
-95 -16 -4 -40 -9 -55 -12 -16 -4 -39 -8 -53 -9 -14 -2 -25 -4 -25 -5 0 -3
-41 -9 -115 -17 -134 -13 -491 -6 -518 11 -4 2 -31 7 -61 11 -98 12 -400 102
-425 126 -6 5 -18 9 -28 9 -10 0 -18 5 -18 10 0 6 -3 9 -7 8 -11 -2 -36 9
-234 105 -184 89 -327 158 -526 253 -65 31 -172 82 -238 114 -66 32 -196 95
-290 140 -214 103 -375 176 -403 181 -4 1 -29 10 -56 20 -53 21 -268 82 -331
95 -22 4 -46 8 -53 10 -39 7 -154 25 -202 30 -30 3 -68 8 -85 10 -36 5 -364 5
-420 -1 -99 -8 -164 -16 -210 -25 -27 -5 -63 -11 -80 -14 -16 -2 -61 -12 -100
-21 -38 -9 -77 -18 -85 -20 -8 -2 -15 -4 -15 -5 0 -1 -8 -3 -17 -5 -33 -6
-213 -67 -255 -86 -24 -10 -45 -19 -48 -19 -6 0 -103 -45 -250 -115 -212 -102
-401 -193 -530 -254 -71 -35 -155 -75 -186 -91 -32 -16 -60 -26 -63 -23 -3 4
-6 2 -6 -4 0 -6 -10 -14 -22 -18 -31 -10 -13 -2 -198 -92 -214 -104 -364 -176
-370 -178 -3 0 -18 -8 -35 -17 -74 -39 -338 -125 -440 -144 -158 -28 -248 -36
-415 -36 -162 -1 -293 13 -435 46 -11 2 -42 9 -70 16 -59 13 -177 53 -260 87
-59 25 -109 48 -395 186 -80 38 -185 88 -235 112 -49 23 -162 77 -250 120 -88
42 -209 101 -270 130 -60 29 -162 77 -225 108 -63 30 -176 84 -250 120 -74 35
-200 96 -280 134 -80 39 -192 93 -250 120 -58 28 -159 77 -225 109 -66 32
-123 58 -127 59 -4 0 -13 6 -19 13 -7 6 -19 12 -26 12 -8 0 -24 7 -37 15 -19
12 -25 13 -33 3z"/>
<path d="M262 11457 c-6 -7 -24 -41 -40 -77 -16 -36 -71 -150 -122 -255 -50
-104 -92 -194 -93 -200 -2 -10 9 -16 232 -125 79 -38 150 -70 156 -70 7 0 18
-7 25 -15 6 -8 15 -14 18 -13 4 1 72 -30 152 -69 310 -151 420 -203 430 -203
5 0 10 -4 10 -10 0 -5 6 -10 14 -10 8 0 59 -22 113 -49 154 -76 298 -145 303
-147 3 0 46 -20 95 -44 50 -24 93 -43 98 -42 4 1 7 -2 7 -8 0 -5 4 -10 9 -10
5 0 67 -28 138 -62 70 -34 130 -63 133 -63 3 -1 66 -31 140 -67 74 -36 185
-89 245 -119 61 -29 113 -52 118 -51 4 1 7 -2 7 -8 0 -5 5 -10 10 -10 6 0 43
-15 83 -34 40 -18 101 -45 137 -58 36 -14 74 -29 85 -33 11 -4 25 -9 30 -11 6
-2 54 -17 108 -33 85 -26 150 -42 277 -68 27 -5 39 -7 110 -17 25 -4 61 -9 80
-12 48 -7 493 -13 504 -7 4 3 32 7 62 9 29 1 95 10 146 19 51 9 104 18 118 20
21 4 76 17 163 40 9 3 25 7 35 9 40 9 228 76 297 106 28 12 217 101 350 165
367 177 443 213 473 226 17 8 32 18 32 22 0 5 4 6 9 3 4 -3 17 1 27 9 10 8 27
15 37 15 9 0 17 4 17 8 0 4 23 16 51 27 28 11 55 26 61 33 6 6 17 12 24 12 8
0 40 13 71 30 32 16 126 61 208 101 355 170 405 192 405 182 0 -3 6 -1 13 4
11 9 98 41 130 47 7 2 19 6 27 9 15 5 93 23 140 32 14 3 39 8 55 12 144 33
512 38 661 9 12 -3 39 -7 60 -10 91 -15 284 -67 349 -95 11 -5 43 -18 70 -29
57 -23 182 -82 420 -197 88 -42 210 -101 270 -130 179 -86 351 -168 495 -238
292 -140 387 -185 425 -202 90 -39 241 -95 257 -95 9 0 19 -4 22 -9 3 -5 18
-11 33 -14 16 -2 55 -12 87 -21 33 -9 69 -18 80 -21 12 -2 21 -4 21 -5 0 -1 9
-3 20 -5 11 -1 58 -10 105 -18 182 -33 493 -53 533 -35 11 6 17 5 17 -2 0 -6
4 -9 8 -6 4 2 48 8 97 12 119 9 139 11 145 14 3 1 8 2 12 2 3 -1 46 6 95 15
48 8 97 17 108 18 11 2 20 4 20 5 0 1 9 3 20 6 16 3 146 39 210 58 15 5 42 14
151 57 56 21 107 39 113 39 6 0 11 5 11 10 0 6 6 10 13 10 15 0 289 139 297
150 3 4 16 11 30 15 14 4 36 16 50 25 14 10 41 25 61 33 20 8 40 20 43 26 4 6
16 11 26 11 10 0 20 3 22 8 2 4 32 22 68 41 36 18 97 51 135 71 39 21 102 55
140 75 39 20 95 50 125 66 215 118 421 218 460 224 3 0 14 6 25 12 50 27 304
90 440 108 143 20 388 20 520 1 78 -11 169 -27 175 -31 3 -2 18 -6 32 -9 98
-17 408 -128 416 -148 2 -4 8 -8 13 -8 10 0 85 -35 309 -143 144 -69 210 -101
539 -259 486 -234 598 -287 666 -315 33 -13 74 -30 90 -37 27 -12 155 -56 180
-62 19 -5 50 -13 105 -28 30 -8 66 -17 80 -20 14 -2 50 -10 80 -16 164 -32
297 -44 510 -44 152 0 205 4 330 19 74 10 137 21 228 40 44 10 58 13 102 25
25 7 52 14 60 15 8 2 16 4 18 5 1 2 5 3 10 5 4 1 21 5 37 10 31 8 158 54 230
83 38 16 1045 519 1133 567 23 13 42 21 42 18 0 -3 6 -1 13 5 6 5 163 86 347
178 184 93 337 172 338 177 2 4 11 7 21 7 9 0 21 4 26 9 6 5 75 41 155 80 80
40 154 77 165 83 11 6 67 35 124 65 58 29 108 56 113 61 4 4 -53 127 -126 272
-127 250 -154 292 -175 263 -3 -4 -157 -84 -341 -176 -862 -433 -1435 -722
-1440 -727 -11 -11 -579 -293 -586 -291 -4 2 -10 -1 -13 -6 -3 -4 -22 -14 -41
-21 -78 -30 -202 -72 -225 -76 -14 -3 -28 -7 -33 -10 -9 -5 -15 -7 -137 -30
-279 -53 -552 -50 -820 8 -5 1 -26 6 -45 10 -53 12 -208 61 -270 86 -59 23
-117 50 -310 143 -69 33 -179 86 -245 117 -219 105 -489 235 -785 377 -241
117 -303 145 -410 185 -58 22 -112 41 -120 43 -8 2 -27 8 -43 14 -15 6 -38 13
-50 15 -12 3 -47 12 -77 20 -52 14 -71 19 -137 31 -16 3 -34 8 -40 10 -7 2
-43 7 -80 11 -38 3 -71 8 -75 10 -13 8 -184 17 -323 17 -195 1 -314 -10 -490
-44 -55 -11 -111 -22 -125 -25 -14 -3 -34 -8 -45 -11 -11 -4 -26 -8 -32 -9 -7
-1 -66 -19 -130 -40 -65 -20 -120 -36 -122 -35 -2 2 -7 -1 -10 -6 -3 -5 -28
-17 -56 -27 -43 -16 -129 -58 -360 -174 -27 -14 -52 -28 -55 -31 -5 -6 -168
-92 -217 -115 -13 -6 -23 -15 -23 -19 0 -5 -4 -6 -9 -3 -5 3 -20 -4 -35 -15
-14 -11 -26 -17 -26 -12 0 4 -4 4 -8 -2 -4 -5 -29 -21 -57 -35 -27 -14 -52
-27 -55 -30 -4 -4 -87 -48 -260 -137 -30 -15 -57 -30 -60 -33 -24 -24 -388
-194 -439 -205 -9 -2 -36 -11 -60 -19 -85 -31 -297 -75 -381 -80 -14 -1 -29
-4 -35 -7 -11 -7 -387 -2 -425 5 -14 2 -41 7 -60 10 -103 15 -128 20 -270 56
-59 15 -279 98 -317 120 -17 9 -212 103 -478 230 -128 61 -292 140 -495 238
-80 38 -193 92 -252 121 -58 28 -111 51 -117 51 -6 0 -11 5 -11 10 0 6 -6 10
-13 10 -7 0 -37 13 -67 28 -99 51 -377 156 -445 168 -11 2 -45 10 -75 18 -61
17 -78 20 -195 41 -156 27 -269 37 -435 37 -134 0 -323 -12 -395 -26 -11 -2
-60 -11 -110 -20 -100 -19 -279 -66 -364 -97 -31 -11 -60 -22 -66 -23 -34 -10
-180 -74 -295 -129 -58 -28 -108 -50 -112 -49 -5 1 -8 -3 -8 -8 0 -6 -4 -10
-10 -10 -5 0 -72 -30 -147 -66 -76 -37 -201 -97 -278 -134 -158 -76 -327 -157
-490 -235 -60 -29 -180 -86 -266 -128 -164 -79 -323 -145 -366 -153 -14 -3
-33 -9 -42 -13 -19 -10 -226 -57 -291 -65 -111 -15 -161 -19 -279 -19 -116 0
-238 6 -286 16 -11 3 -42 8 -70 12 -76 10 -231 50 -315 80 -41 14 -84 29 -95
32 -11 3 -25 10 -31 15 -7 5 -23 11 -35 13 -13 3 -25 9 -27 15 -2 5 -9 10 -16
10 -7 0 -34 11 -62 24 -120 60 -369 180 -374 181 -3 0 -52 24 -110 52 -58 28
-163 79 -235 113 -71 34 -188 91 -260 125 -71 34 -188 91 -260 125 -71 34
-191 92 -265 128 -246 118 -345 166 -350 167 -10 3 -55 25 -70 34 -8 5 -49 25
-90 44 -41 19 -133 64 -205 98 -72 35 -133 62 -137 61 -5 -1 -8 3 -8 8 0 6 -6
10 -13 10 -7 0 -29 9 -49 20 -28 15 -39 16 -46 7z"/>
<path d="M262 9087 c-6 -7 -26 -46 -45 -87 -19 -41 -58 -124 -88 -185 -30 -60
-54 -112 -54 -115 -1 -3 -18 -38 -38 -79 -20 -41 -36 -75 -35 -77 2 -1 46 -22
98 -47 52 -24 147 -69 210 -100 202 -96 382 -183 510 -245 364 -175 463 -222
471 -222 5 0 9 -4 9 -10 0 -5 3 -9 8 -8 4 2 48 -17 97 -42 50 -24 92 -44 95
-45 3 0 55 -25 115 -54 231 -113 334 -161 342 -161 5 0 15 -6 21 -12 7 -7 16
-13 20 -14 7 0 67 -29 337 -159 184 -89 283 -135 290 -135 3 0 24 -8 48 -19
44 -19 108 -45 117 -47 3 0 32 -9 65 -19 33 -10 65 -20 70 -21 6 -2 35 -10 65
-18 30 -8 66 -17 80 -20 14 -3 36 -8 50 -11 14 -3 39 -7 55 -10 17 -3 41 -7
55 -10 37 -7 97 -15 170 -23 93 -9 453 -8 530 2 36 4 76 9 90 11 58 6 141 21
168 29 9 3 28 7 42 10 60 11 167 37 185 46 11 5 45 16 75 26 30 9 95 32 145
51 89 35 120 49 429 197 87 42 162 76 167 76 5 0 9 4 9 10 0 5 3 9 8 8 4 -1
41 14 82 34 41 20 147 71 235 113 88 43 205 99 260 125 55 26 177 85 270 130
94 45 195 93 225 107 30 13 69 31 85 38 17 7 66 25 110 40 44 15 87 29 95 32
8 3 24 8 34 10 11 2 45 10 75 17 31 8 72 17 91 20 19 3 46 8 60 11 58 12 184
20 320 20 186 -1 267 -9 435 -46 121 -27 116 -26 146 -37 15 -6 30 -8 33 -5 3
4 6 0 6 -7 0 -7 3 -11 6 -7 3 3 29 -3 58 -14 111 -44 221 -93 227 -102 3 -5 8
-8 10 -7 8 3 56 -19 253 -115 199 -96 372 -180 496 -238 36 -17 68 -30 73 -29
4 1 7 -2 7 -8 0 -5 4 -10 9 -10 6 0 85 -37 178 -82 92 -45 170 -82 173 -83 3
0 54 -25 114 -54 134 -65 213 -101 220 -101 4 0 25 -8 49 -19 58 -25 187 -69
292 -97 22 -6 161 -37 180 -39 11 -2 43 -8 70 -13 48 -10 106 -17 225 -27 128
-12 395 -6 518 11 111 15 105 14 242 40 14 3 33 7 42 10 16 5 38 10 85 20 49
10 263 84 343 118 83 36 335 160 355 176 6 4 73 40 150 80 77 40 154 81 170
90 17 10 66 37 110 60 179 95 275 146 370 197 186 101 320 163 438 203 65 22
128 42 140 44 12 2 40 9 62 15 22 5 60 13 84 16 23 3 46 7 50 9 7 5 91 16 166
22 60 5 285 5 325 0 19 -3 60 -7 90 -11 30 -3 66 -8 80 -10 14 -3 48 -10 75
-15 28 -5 77 -16 110 -25 33 -9 65 -18 70 -19 6 -2 17 -6 25 -9 8 -3 44 -15
80 -27 36 -13 88 -33 115 -45 92 -41 270 -126 285 -136 8 -5 22 -12 30 -15 8
-4 71 -33 140 -67 203 -98 255 -121 263 -119 4 1 7 -2 7 -7 0 -5 10 -13 23
-17 12 -3 83 -36 157 -72 74 -35 189 -90 255 -122 66 -31 173 -83 238 -114
113 -55 271 -125 292 -130 12 -4 43 -15 70 -26 22 -9 188 -59 220 -66 11 -2
29 -6 40 -8 225 -52 378 -69 620 -70 216 0 325 11 560 58 59 12 166 41 250 68
201 66 270 99 1780 863 209 106 499 252 645 325 146 74 267 135 268 136 5 3
-206 424 -220 442 -6 6 -8 12 -4 12 3 0 -5 18 -19 40 -14 22 -25 44 -25 50 0
6 -19 1 -42 -11 -24 -12 -45 -21 -47 -20 -2 2 -7 -1 -10 -6 -3 -4 -141 -75
-306 -158 -165 -82 -302 -153 -305 -156 -3 -3 -22 -11 -42 -18 -20 -7 -42 -19
-48 -27 -7 -7 -18 -14 -24 -14 -6 0 -24 -7 -41 -16 -48 -26 -763 -388 -967
-490 -104 -52 -191 -94 -194 -93 -4 0 -10 -3 -13 -8 -5 -8 -320 -166 -411
-206 -75 -34 -276 -98 -355 -113 -11 -2 -31 -6 -45 -9 -53 -10 -141 -23 -220
-30 -50 -5 -297 -5 -345 0 -22 2 -58 6 -80 9 -22 4 -58 9 -80 12 -49 6 -171
32 -205 44 -14 4 -52 16 -85 25 -33 10 -64 21 -70 26 -5 4 -14 8 -20 9 -5 1
-20 6 -33 11 -13 5 -25 9 -28 9 -7 0 -120 53 -524 248 -74 36 -141 66 -148 68
-8 1 -23 11 -34 21 -11 10 -23 17 -27 17 -7 -2 -80 31 -281 128 -536 261 -632
304 -775 354 -106 37 -294 89 -359 98 -21 4 -41 8 -45 10 -3 2 -28 6 -56 10
-27 3 -61 8 -75 10 -133 24 -510 25 -678 1 -101 -14 -119 -16 -135 -21 -11 -4
-29 -7 -40 -9 -111 -15 -377 -93 -494 -146 -36 -16 -71 -29 -79 -29 -8 0 -14
-4 -14 -10 0 -5 -5 -10 -11 -10 -9 0 -70 -27 -109 -49 -8 -4 -26 -14 -39 -21
-14 -7 -68 -35 -120 -63 -186 -97 -356 -188 -371 -197 -37 -24 -90 -50 -90
-44 0 3 -7 -2 -16 -10 -8 -9 -22 -16 -30 -16 -8 0 -14 -4 -14 -10 0 -5 -4 -10
-9 -10 -5 0 -61 -28 -123 -61 -247 -134 -468 -244 -533 -265 -5 -2 -37 -13
-70 -24 -33 -12 -67 -23 -75 -25 -8 -2 -43 -11 -77 -20 -61 -16 -76 -19 -138
-31 -184 -35 -476 -39 -683 -8 -63 9 -203 43 -292 71 -47 15 -87 27 -90 28
-26 8 -77 30 -193 84 -49 23 -92 41 -98 41 -5 0 -9 5 -9 10 0 6 -3 9 -8 8 -7
-2 -87 35 -289 135 -62 30 -113 53 -113 50 0 -2 -13 5 -29 16 -16 12 -32 21
-35 21 -3 0 -68 30 -143 66 -76 37 -181 87 -233 111 -52 25 -165 79 -250 120
-270 131 -467 218 -515 227 -5 1 -48 14 -95 28 -47 14 -98 29 -115 32 -16 4
-48 11 -70 16 -72 17 -186 36 -265 44 -25 3 -65 8 -90 11 -53 8 -353 8 -425 1
-100 -10 -186 -21 -231 -30 -12 -2 -39 -7 -60 -10 -76 -13 -273 -63 -324 -83
-8 -3 -20 -7 -25 -8 -43 -10 -273 -109 -430 -185 -104 -51 -221 -107 -260
-125 -38 -18 -155 -74 -260 -125 -188 -91 -236 -113 -244 -110 -2 1 -7 -2 -10
-7 -7 -10 -28 -20 -468 -229 -39 -19 -76 -34 -82 -34 -6 0 -11 -4 -11 -10 0
-5 -4 -10 -10 -10 -5 0 -33 -11 -62 -24 -107 -47 -229 -93 -277 -102 -14 -3
-58 -14 -99 -25 -40 -12 -76 -18 -79 -15 -4 3 -11 2 -17 -3 -6 -5 -36 -11 -66
-15 -30 -3 -82 -9 -115 -12 -118 -14 -407 -6 -490 13 -11 2 -36 7 -55 9 -19 3
-53 10 -75 16 -22 6 -49 12 -60 14 -35 6 -178 51 -245 77 -65 24 -143 60 -425
197 -82 39 -186 89 -230 110 -44 21 -169 81 -279 134 -109 53 -203 96 -207 96
-5 0 -9 5 -9 10 0 6 -6 10 -13 10 -8 0 -45 15 -83 34 -38 18 -121 58 -184 88
-63 31 -178 86 -255 123 -339 164 -406 195 -414 195 -5 0 -14 7 -21 15 -7 9
-15 14 -17 11 -2 -2 -52 20 -111 49 -59 29 -156 76 -217 105 -60 28 -127 60
-147 70 -28 14 -39 16 -46 7z"/>
</g>
</svg>
