<svg width="22" height="22" viewBox="0 0 22 22" fill="none" xmlns="http://www.w3.org/2000/svg">
<path d="M10.9848 2.65773C13.6635 2.65773 14.0288 2.65773 15.1247 2.65773C16.0988 2.65773 16.5858 2.90125 16.9511 3.02301C17.4381 3.26654 17.8034 3.3883 18.1687 3.75358C18.534 4.11887 18.7775 4.48415 18.8993 4.9712C19.021 5.33649 19.1428 5.82353 19.2646 6.79763C19.2646 7.89348 19.2646 8.13701 19.2646 10.9375C19.2646 13.7381 19.2646 13.9816 19.2646 15.0774C19.2646 16.0515 19.021 16.5386 18.8993 16.9039C18.6558 17.3909 18.534 17.7562 18.1687 18.1215C17.8034 18.4868 17.4381 18.7303 16.9511 18.852C16.5858 18.9738 16.0988 19.0956 15.1247 19.2173C14.0288 19.2173 13.7853 19.2173 10.9848 19.2173C8.18425 19.2173 7.94073 19.2173 6.84487 19.2173C5.87077 19.2173 5.38373 18.9738 5.01844 18.852C4.53139 18.6085 4.16611 18.4868 3.80082 18.1215C3.43554 17.7562 3.19201 17.3909 3.07025 16.9039C2.94849 16.5386 2.82673 16.0515 2.70497 15.0774C2.70497 13.9816 2.70497 13.7381 2.70497 10.9375C2.70497 8.13701 2.70497 7.89348 2.70497 6.79763C2.70497 5.82353 2.94849 5.33649 3.07025 4.9712C3.31378 4.48415 3.43554 4.11887 3.80082 3.75358C4.16611 3.3883 4.53139 3.14477 5.01844 3.02301C5.38373 2.90125 5.87077 2.77949 6.84487 2.65773C7.94073 2.65773 8.30601 2.65773 10.9848 2.65773ZM10.9848 0.831299C8.18425 0.831299 7.94073 0.831299 6.84487 0.831299C5.74901 0.831299 5.01844 1.07482 4.40963 1.31835C3.80082 1.56187 3.19201 1.92716 2.58321 2.53596C1.9744 3.14477 1.73087 3.63182 1.36559 4.36239C1.12206 4.9712 1.0003 5.70177 0.87854 6.79763C0.87854 7.89348 0.87854 8.25877 0.87854 10.9375C0.87854 13.7381 0.87854 13.9816 0.87854 15.0774C0.87854 16.1733 1.12206 16.9039 1.36559 17.5127C1.60911 18.1215 1.9744 18.7303 2.58321 19.3391C3.19201 19.9479 3.67906 20.1914 4.40963 20.5567C5.01844 20.8002 5.74901 20.922 6.84487 21.0438C7.94073 21.0438 8.30601 21.0438 10.9848 21.0438C13.6635 21.0438 14.0288 21.0438 15.1247 21.0438C16.2205 21.0438 16.9511 20.8002 17.5599 20.5567C18.1687 20.3132 18.7775 19.9479 19.3863 19.3391C19.9951 18.7303 20.2387 18.2432 20.604 17.5127C20.8475 16.9039 20.9692 16.1733 21.091 15.0774C21.091 13.9816 21.091 13.6163 21.091 10.9375C21.091 8.25877 21.091 7.89348 21.091 6.79763C21.091 5.70177 20.8475 4.9712 20.604 4.36239C20.3604 3.75358 19.9951 3.14477 19.3863 2.53596C18.7775 1.92716 18.2905 1.68363 17.5599 1.31835C16.9511 1.07482 16.2205 0.953061 15.1247 0.831299C14.0288 0.831299 13.7853 0.831299 10.9848 0.831299Z" fill="white"/>
<path d="M10.9848 5.70177C8.06249 5.70177 5.74901 8.01525 5.74901 10.9375C5.74901 13.8598 8.06249 16.1733 10.9848 16.1733C13.9071 16.1733 16.2205 13.8598 16.2205 10.9375C16.2205 8.01525 13.9071 5.70177 10.9848 5.70177ZM10.9848 14.3469C9.15834 14.3469 7.57544 12.8857 7.57544 10.9375C7.57544 9.1111 9.03658 7.5282 10.9848 7.5282C12.8112 7.5282 14.3941 8.98934 14.3941 10.9375C14.3941 12.764 12.8112 14.3469 10.9848 14.3469Z" fill="white"/>
<path d="M16.3423 6.79763C17.0148 6.79763 17.5599 6.25248 17.5599 5.58001C17.5599 4.90754 17.0148 4.36239 16.3423 4.36239C15.6698 4.36239 15.1247 4.90754 15.1247 5.58001C15.1247 6.25248 15.6698 6.79763 16.3423 6.79763Z" fill="white"/>
</svg>
