<svg width="21" height="20" viewBox="0 0 21 20" fill="none" xmlns="http://www.w3.org/2000/svg">
<path d="M5.28993 19.6782H1.15001V6.64966H5.28993V19.6782ZM3.21997 4.82324C1.88059 4.82324 0.906494 3.84914 0.906494 2.50976C0.906494 1.17038 2.00235 0.196289 3.21997 0.196289C4.55935 0.196289 5.53345 1.17038 5.53345 2.50976C5.53345 3.84914 4.55935 4.82324 3.21997 4.82324ZM20.3884 19.6782H16.2485V12.616C16.2485 10.546 15.3961 9.93723 14.1785 9.93723C12.9609 9.93723 11.7433 10.9113 11.7433 12.7378V19.6782H7.60339V6.64966H11.4998V8.47609C11.8651 7.62376 13.3262 6.28438 15.3961 6.28438C17.7096 6.28438 20.1449 7.62376 20.1449 11.6419V19.6782H20.3884Z" fill="white"/>
</svg>
