<svg width="40" height="40" viewBox="0 0 40 40" fill="none" xmlns="http://www.w3.org/2000/svg">
<rect width="40" height="40" rx="6" fill="url(#paint0_linear_1_3093)"/>
<path d="M20.0002 11.8518C17.8392 11.8518 15.7667 12.7103 14.2386 14.2383C12.7105 15.7664 11.8521 17.8389 11.8521 20C11.8521 22.161 12.7105 24.2335 14.2386 25.7616C15.7667 27.2896 17.8392 28.1481 20.0002 28.1481C22.1612 28.1481 24.2337 27.2896 25.7618 25.7616C27.2899 24.2335 28.1483 22.161 28.1483 20C28.1483 17.8389 27.2899 15.7664 25.7618 14.2383C24.2337 12.7103 22.1612 11.8518 20.0002 11.8518ZM20.0002 25.2917C18.5963 25.2917 17.2499 24.734 16.2571 23.7412C15.2644 22.7485 14.7067 21.4021 14.7067 19.9982C14.7067 18.5943 15.2644 17.2479 16.2571 16.2551C17.2499 15.2624 18.5963 14.7047 20.0002 14.7047C21.4041 14.7047 22.7505 15.2624 23.7433 16.2551C24.736 17.2479 25.2937 18.5943 25.2937 19.9982C25.2937 21.4021 24.736 22.7485 23.7433 23.7412C22.7505 24.734 21.4041 25.2917 20.0002 25.2917Z" fill="white"/>
<path d="M28.148 13.3333C28.9662 13.3333 29.6295 12.67 29.6295 11.8518C29.6295 11.0336 28.9662 10.3704 28.148 10.3704C27.3298 10.3704 26.6665 11.0336 26.6665 11.8518C26.6665 12.67 27.3298 13.3333 28.148 13.3333Z" fill="white"/>
<path d="M34.7314 9.80214C34.3314 8.77093 33.7202 7.83446 32.9369 7.05268C32.1536 6.27089 31.2155 5.66101 30.1825 5.26208C28.9738 4.80904 27.6968 4.56407 26.4059 4.5376C24.7422 4.46516 24.2153 4.44446 19.9964 4.44446C15.7776 4.44446 15.2368 4.44446 13.5869 4.5376C12.2971 4.56271 11.021 4.80773 9.8138 5.26208C8.78057 5.66055 7.84217 6.27026 7.05881 7.05211C6.27545 7.83395 5.66444 8.77066 5.26496 9.80214C4.81112 11.0089 4.56633 12.2841 4.54108 13.5729C4.4668 15.2323 4.44434 15.7584 4.44434 19.9724C4.44434 24.1847 4.44434 24.7212 4.54108 26.372C4.567 27.6622 4.81059 28.9352 5.26496 30.1444C5.66556 31.1755 6.27717 32.1119 7.06072 32.8936C7.84427 33.6753 8.78252 34.2853 9.81553 34.6845C11.0204 35.1557 12.297 35.4182 13.5904 35.4607C15.2541 35.5331 15.781 35.5556 19.9999 35.5556C24.2188 35.5556 24.7595 35.5556 26.4094 35.4607C27.7001 35.4345 28.977 35.1901 30.186 34.7379C31.2187 34.3381 32.1566 33.7277 32.9398 32.9457C33.723 32.1637 34.3343 31.2273 34.7348 30.1962C35.1892 28.9887 35.4328 27.7157 35.4587 26.4254C35.533 24.766 35.5555 24.2399 35.5555 20.0259C35.5555 15.8118 35.5555 15.2771 35.4587 13.6263C35.4386 12.3193 35.1925 11.0256 34.7314 9.80214ZM32.6271 26.2443C32.616 27.2384 32.4343 28.2232 32.0898 29.156C31.8304 29.8268 31.4332 30.4359 30.9238 30.9442C30.4144 31.4525 29.8041 31.8488 29.1321 32.1074C28.2082 32.4497 27.2324 32.6312 26.247 32.6439C24.6057 32.7198 24.1427 32.7387 19.9342 32.7387C15.7223 32.7387 15.2921 32.7387 13.6198 32.6439C12.6349 32.6318 11.6595 32.4504 10.7364 32.1074C10.062 31.8504 9.44928 31.4548 8.93771 30.9464C8.42613 30.438 8.02715 29.8281 7.76656 29.156C7.42699 28.2333 7.24536 27.26 7.22927 26.2771C7.15498 24.6384 7.13771 24.1761 7.13771 19.9741C7.13771 15.7704 7.13771 15.3409 7.22927 13.6695C7.24044 12.6759 7.42217 11.6917 7.76656 10.7595C8.29349 9.3985 9.37326 8.32731 10.7364 7.80638C11.6599 7.46508 12.6351 7.28366 13.6198 7.26992C15.2627 7.19575 15.724 7.17505 19.9342 7.17505C24.1445 7.17505 24.5764 7.17505 26.247 7.26992C27.2324 7.28175 28.2085 7.46324 29.1321 7.80638C29.8041 8.06559 30.4143 8.4622 30.9236 8.97077C31.433 9.47933 31.8302 10.0886 32.0898 10.7595C32.4294 11.6822 32.611 12.6555 32.6271 13.6384C32.7014 15.2788 32.7204 15.7394 32.7204 19.9431C32.7204 24.1451 32.7204 24.597 32.6461 26.246H32.6271V26.2443Z" fill="white"/>
<defs>
<linearGradient id="paint0_linear_1_3093" x1="61.5385" y1="-30.7692" x2="-4.61539" y2="58.4615" gradientUnits="userSpaceOnUse">
<stop stop-color="#405DE6"/>
<stop offset="0.197917" stop-color="#5851DB"/>
<stop offset="0.401042" stop-color="#833AB4"/>
<stop offset="0.598958" stop-color="#C13584"/>
<stop offset="0.807292" stop-color="#E1306C"/>
<stop offset="1" stop-color="#FD1D1D"/>
</linearGradient>
</defs>
</svg>
