<svg width="40" height="40" viewBox="0 0 40 40" fill="none" xmlns="http://www.w3.org/2000/svg">
<path d="M7.34754 0H32.6525C33.6174 0 34.5728 0.197599 35.4642 0.581516C36.3557 0.965433 37.1657 1.52815 37.848 2.23753C38.5302 2.94692 39.0715 3.78908 39.4407 4.71594C39.8099 5.6428 40 6.6362 40 7.63942V32.3606C40 33.3638 39.8099 34.3572 39.4407 35.2841C39.0715 36.2109 38.5302 37.0531 37.848 37.7625C37.1657 38.4719 36.3557 39.0346 35.4642 39.4185C34.5728 39.8024 33.6174 40 32.6525 40H7.34754C5.39885 40 3.52997 39.1951 2.15204 37.7625C0.774113 36.3298 0 34.3867 0 32.3606V7.63942C0 5.61332 0.774113 3.6702 2.15204 2.23753C3.52997 0.804865 5.39885 0 7.34754 0Z" fill="#3B5998"/>
</svg>
