<svg width="178" height="178" viewBox="0 0 178 178" fill="none" xmlns="http://www.w3.org/2000/svg">
<g clip-path="url(#clip0_1_1851)">
<circle cx="89.0003" cy="87.9823" r="61.5606" fill="#1C1B26"/>
<circle cx="89.2741" cy="64.7716" r="46.3384" stroke="white" stroke-opacity="0.12" stroke-width="1.1033"/>
<circle cx="88.7219" cy="64.2199" r="40.2703" stroke="white" stroke-opacity="0.12" stroke-width="1.1033"/>
<circle cx="88.7228" cy="64.2199" r="34.7538" stroke="white" stroke-opacity="0.12" stroke-width="1.1033"/>
<circle cx="89.2743" cy="63.6683" r="28.6857" stroke="white" stroke-opacity="0.12" stroke-width="1.1033"/>
<circle cx="89.2735" cy="63.6682" r="22.0659" stroke="white" stroke-opacity="0.12" stroke-width="1.1033"/>
<circle cx="89.2744" cy="63.6682" r="16.5494" stroke="white" stroke-opacity="0.12" stroke-width="1.1033"/>
<circle cx="88.7229" cy="64.22" r="10.4813" stroke="white" stroke-opacity="0.12" stroke-width="1.1033"/>
<circle cx="88.7223" cy="64.2198" r="4.96483" stroke="white" stroke-opacity="0.12" stroke-width="1.1033"/>
<circle cx="64.3649" cy="100.356" r="46.3384" stroke="white" stroke-opacity="0.12" stroke-width="1.1033"/>
<circle cx="63.8127" cy="99.8041" r="40.2703" stroke="white" stroke-opacity="0.12" stroke-width="1.1033"/>
<circle cx="63.8136" cy="99.8041" r="34.7538" stroke="white" stroke-opacity="0.12" stroke-width="1.1033"/>
<circle cx="64.3651" cy="99.2525" r="28.6857" stroke="white" stroke-opacity="0.12" stroke-width="1.1033"/>
<circle cx="64.3643" cy="99.2525" r="22.0659" stroke="white" stroke-opacity="0.12" stroke-width="1.1033"/>
<circle cx="64.3652" cy="99.2525" r="16.5494" stroke="white" stroke-opacity="0.12" stroke-width="1.1033"/>
<circle cx="63.8137" cy="99.8042" r="10.4813" stroke="white" stroke-opacity="0.12" stroke-width="1.1033"/>
<circle cx="63.8131" cy="99.8041" r="4.96483" stroke="white" stroke-opacity="0.12" stroke-width="1.1033"/>
<circle cx="112.048" cy="100.356" r="46.3384" stroke="white" stroke-opacity="0.12" stroke-width="1.1033"/>
<circle cx="111.496" cy="99.8041" r="40.2703" stroke="white" stroke-opacity="0.12" stroke-width="1.1033"/>
<circle cx="111.497" cy="99.8041" r="34.7538" stroke="white" stroke-opacity="0.12" stroke-width="1.1033"/>
<circle cx="112.049" cy="99.2525" r="28.6857" stroke="white" stroke-opacity="0.12" stroke-width="1.1033"/>
<circle cx="112.048" cy="99.2525" r="22.0659" stroke="white" stroke-opacity="0.12" stroke-width="1.1033"/>
<circle cx="112.049" cy="99.2525" r="16.5494" stroke="white" stroke-opacity="0.12" stroke-width="1.1033"/>
<circle cx="111.497" cy="99.8042" r="10.4813" stroke="white" stroke-opacity="0.12" stroke-width="1.1033"/>
<circle cx="111.497" cy="99.8041" r="4.96483" stroke="white" stroke-opacity="0.12" stroke-width="1.1033"/>
<circle cx="88.645" cy="87.6263" r="42.701" fill="url(#paint0_linear_1_1851)"/>
<path d="M70.6893 68.9595L107.311 105.582V82.9107L93.36 68.9595V105.582H70.6893V68.9595Z" stroke="#5D6366" stroke-width="4.95637" stroke-linejoin="round"/>
</g>
<circle cx="89.3824" cy="88.3646" r="66.5314" stroke="#3D4F60" stroke-width="1.52946"/>
<circle cx="89.3824" cy="88.3646" r="76.4728" stroke="#3D4F60" stroke-width="1.52946"/>
<path d="M73.3232 13.8036L63.3817 26.4216L45.793 25.6569L40.8222 42.4809L25.1453 47.0693L27.4395 64.658L13.6744 75.7466L22.8511 89.1293L13.6744 103.659L28.2042 114.365L25.91 131.572L41.9693 135.013L46.9401 151.837L64.1464 150.69L74.0879 163.308L88.6177 155.278L103.53 163.308L113.854 150.69L131.06 152.602L136.413 136.16L151.708 131.954L151.325 113.601L164.326 103.277L155.531 87.5999L164.326 73.8348L151.325 63.8933L153.237 45.9222L135.649 40.5691L131.825 25.2745L113.089 26.4216L103.148 13.8036L88.2354 21.4509L73.3232 13.8036Z" stroke="#3D4F60" stroke-width="1.52946"/>
<path d="M88.9141 12.1773L76.6061 22.5L59.5439 18.1607L51.2432 33.6156L34.9597 34.9069L33.6148 52.5936L17.8759 60.6384L24.1273 75.6128L12.1775 87.9632L24.2157 101.41L18.4571 117.786L33.4757 124.433L34.9071 141.918L51.9853 144.307L59.1414 158.689L75.0045 153.795L87.9634 164.7L100.646 154.455L117.099 159.839L125.696 144.837L141.528 143.842L144.9 125.797L159.734 118.344L154.326 101.202L165.745 89.5224L155.048 77.1363L160.588 59.9339L144.463 51.1028L143.842 35.3498L125.267 32.6478L118.11 18.2659L101.951 22.7079L88.9141 12.1773Z" stroke="#3D4F60" stroke-width="1.52946"/>
<defs>
<linearGradient id="paint0_linear_1_1851" x1="60.5313" y1="52.6168" x2="119.941" y2="124.758" gradientUnits="userSpaceOnUse">
<stop stop-color="#2F2F33"/>
<stop offset="1" stop-color="#302F36"/>
</linearGradient>
<clipPath id="clip0_1_1851">
<rect x="27.4395" y="26.4216" width="123.121" height="123.121" rx="61.5606" fill="white"/>
</clipPath>
</defs>
</svg>
