<svg width="233" height="233" viewBox="0 0 233 233" fill="none" xmlns="http://www.w3.org/2000/svg">
<g clip-path="url(#clip0_1_1298)">
<circle cx="116.5" cy="115.5" r="80.5" fill="#1C1B26"/>
<circle cx="116.858" cy="85.1484" r="60.5947" stroke="white" stroke-opacity="0.12" stroke-width="1.44273"/>
<circle cx="116.136" cy="84.427" r="52.6596" stroke="white" stroke-opacity="0.12" stroke-width="1.44273"/>
<circle cx="116.137" cy="84.427" r="45.446" stroke="white" stroke-opacity="0.12" stroke-width="1.44273"/>
<circle cx="116.859" cy="83.7057" r="37.511" stroke="white" stroke-opacity="0.12" stroke-width="1.44273"/>
<circle cx="116.857" cy="83.7057" r="28.8546" stroke="white" stroke-opacity="0.12" stroke-width="1.44273"/>
<circle cx="116.859" cy="83.7057" r="21.6409" stroke="white" stroke-opacity="0.12" stroke-width="1.44273"/>
<circle cx="116.137" cy="84.427" r="13.7059" stroke="white" stroke-opacity="0.12" stroke-width="1.44273"/>
<circle cx="116.137" cy="84.427" r="6.49228" stroke="white" stroke-opacity="0.12" stroke-width="1.44273"/>
<circle cx="84.2859" cy="131.68" r="60.5947" stroke="white" stroke-opacity="0.12" stroke-width="1.44273"/>
<circle cx="83.5638" cy="130.959" r="52.6596" stroke="white" stroke-opacity="0.12" stroke-width="1.44273"/>
<circle cx="83.565" cy="130.959" r="45.446" stroke="white" stroke-opacity="0.12" stroke-width="1.44273"/>
<circle cx="84.2862" cy="130.237" r="37.511" stroke="white" stroke-opacity="0.12" stroke-width="1.44273"/>
<circle cx="84.2851" cy="130.237" r="28.8546" stroke="white" stroke-opacity="0.12" stroke-width="1.44273"/>
<circle cx="84.2863" cy="130.237" r="21.6409" stroke="white" stroke-opacity="0.12" stroke-width="1.44273"/>
<circle cx="83.5652" cy="130.959" r="13.7059" stroke="white" stroke-opacity="0.12" stroke-width="1.44273"/>
<circle cx="83.5644" cy="130.959" r="6.49228" stroke="white" stroke-opacity="0.12" stroke-width="1.44273"/>
<circle cx="146.639" cy="131.68" r="60.5947" stroke="white" stroke-opacity="0.12" stroke-width="1.44273"/>
<circle cx="145.917" cy="130.959" r="52.6596" stroke="white" stroke-opacity="0.12" stroke-width="1.44273"/>
<circle cx="145.919" cy="130.959" r="45.446" stroke="white" stroke-opacity="0.12" stroke-width="1.44273"/>
<circle cx="146.64" cy="130.237" r="37.511" stroke="white" stroke-opacity="0.12" stroke-width="1.44273"/>
<circle cx="146.639" cy="130.237" r="28.8546" stroke="white" stroke-opacity="0.12" stroke-width="1.44273"/>
<circle cx="146.64" cy="130.237" r="21.6409" stroke="white" stroke-opacity="0.12" stroke-width="1.44273"/>
<circle cx="145.919" cy="130.959" r="13.7059" stroke="white" stroke-opacity="0.12" stroke-width="1.44273"/>
<circle cx="145.918" cy="130.959" r="6.49228" stroke="white" stroke-opacity="0.12" stroke-width="1.44273"/>
<circle cx="116.036" cy="115.035" r="55.8382" fill="url(#paint0_linear_1_1298)"/>
<path d="M92.5558 90.6249L140.445 138.514V108.868L122.201 90.6249V138.514H92.5558V90.6249Z" stroke="#5D6366" stroke-width="6.48121" stroke-linejoin="round"/>
</g>
<circle cx="117" cy="116" r="87" stroke="#3D4F60" stroke-width="2"/>
<circle cx="117" cy="116" r="100" stroke="#3D4F60" stroke-width="2"/>
<path d="M96.0002 18.5L83.0002 35L60.0002 34L53.5002 56L33.0002 62L36.0002 85L18.0002 99.5L30.0002 117L18.0002 136L37.0002 150L34.0002 172.5L55.0002 177L61.5002 199L84.0002 197.5L97.0002 214L116 203.5L135.5 214L149 197.5L171.5 200L178.5 178.5L198.5 173L198 149L215 135.5L203.5 115L215 97L198 84L200.5 60.5L177.5 53.5L172.5 33.5L148 35L135 18.5L115.5 28.5L96.0002 18.5Z" stroke="#3D4F60" stroke-width="2"/>
<path d="M116.388 16.3734L100.293 29.872L77.9816 24.1976L67.1272 44.4073L45.834 46.0958L44.0754 69.2239L23.4943 79.7438L31.669 99.3251L16.0428 115.475L31.7846 133.059L24.2544 154.473L43.8935 163.165L45.7653 186.029L68.0976 189.154L77.4554 207.96L98.1988 201.56L115.145 215.82L131.729 202.424L153.244 209.464L164.486 189.846L185.188 188.545L189.598 164.948L208.996 155.203L201.923 132.787L216.856 117.514L202.868 101.317L210.113 78.8225L189.026 67.2745L188.214 46.675L163.924 43.1417L154.566 24.3353L133.436 30.1437L116.388 16.3734Z" stroke="#3D4F60" stroke-width="2"/>
<defs>
<linearGradient id="paint0_linear_1_1298" x1="79.2726" y1="69.2543" x2="156.96" y2="163.59" gradientUnits="userSpaceOnUse">
<stop stop-color="#2F2F33"/>
<stop offset="1" stop-color="#302F36"/>
</linearGradient>
<clipPath id="clip0_1_1298">
<rect x="36.0002" y="35" width="161" height="161" rx="80.5" fill="white"/>
</clipPath>
</defs>
</svg>
