<svg width="25" height="24" viewBox="0 0 25 24" fill="none" xmlns="http://www.w3.org/2000/svg">
<g clip-path="url(#clip0_1_5813)">
<path d="M0.892914 15.4995C1.6456 17.9602 3.16839 20.1142 5.23711 21.6445C7.30584 23.1747 9.81121 24.0004 12.3844 24C19.0204 24 24.3994 18.627 24.3994 12C24.3994 5.373 19.0204 8.99676e-07 12.3859 8.99676e-07C9.33982 -0.00117747 6.40711 1.15524 4.1816 3.23509C1.95609 5.31494 0.60411 8.1628 0.399414 11.202L0.403914 11.211L6.85991 13.8645C7.44218 13.479 8.13182 13.2883 8.82941 13.32L11.7694 9.054L11.7679 8.994C11.7691 7.78404 12.2502 6.62397 13.1056 5.76826C13.961 4.91255 15.121 4.43109 16.3309 4.4295C17.5409 4.43109 18.7008 4.91255 19.5562 5.76826C20.4116 6.62397 20.8927 7.78404 20.8939 8.994C20.8934 9.60199 20.7717 10.2038 20.5357 10.7641C20.2998 11.3245 19.9544 11.8321 19.5199 12.2573C19.0853 12.6825 18.5703 13.0168 18.0049 13.2405C17.4396 13.4641 16.8353 13.5728 16.2274 13.56L12.0214 16.56C12.0357 17.1157 11.9108 17.6662 11.6581 18.1613C11.4054 18.6564 11.033 19.0805 10.5746 19.3951C10.1163 19.7096 9.58657 19.9045 9.03368 19.9621C8.4808 20.0197 7.92227 19.9382 7.40891 19.725C6.9162 19.5197 6.48015 19.1988 6.13761 18.7894C5.79507 18.38 5.55611 17.8942 5.44091 17.373L0.894414 15.4995H0.892914Z" fill="black"/>
<path d="M7.70142 19.0245C8.32637 19.263 9.01966 19.2488 9.63427 18.9847C10.2489 18.7207 10.7365 18.2276 10.9936 17.6101C11.2508 16.9925 11.2573 16.2991 11.0117 15.6769C10.7662 15.0547 10.288 14.5525 9.67842 14.277C9.07405 14.0248 8.39597 14.0141 7.78392 14.247L9.31842 14.883C9.5479 14.9785 9.75632 15.1183 9.93178 15.2944C10.1072 15.4705 10.2463 15.6794 10.341 15.9092C10.4357 16.1391 10.4842 16.3853 10.4838 16.6339C10.4834 16.8825 10.434 17.1285 10.3384 17.358C10.2429 17.5875 10.1031 17.7959 9.927 17.9714C9.75091 18.1468 9.54199 18.2859 9.31217 18.3806C9.08234 18.4753 8.83611 18.5238 8.58753 18.5234C8.33896 18.5229 8.0929 18.4735 7.86342 18.378L6.37842 17.763C6.64866 18.332 7.11993 18.7808 7.70142 19.023V19.0245ZM13.2904 8.99399C13.2908 9.80054 13.6112 10.574 14.1812 11.1446C14.7512 11.7152 15.5244 12.0363 16.3309 12.0375C17.1375 12.0363 17.9106 11.7152 18.4806 11.1446C19.0507 10.574 19.371 9.80054 19.3714 8.99399C19.3702 8.18797 19.0495 7.41529 18.4796 6.84535C17.9096 6.2754 17.1369 5.95468 16.3309 5.95349C15.5249 5.95468 14.7522 6.2754 14.1823 6.84535C13.6123 7.41529 13.2916 8.18797 13.2904 8.99399ZM16.3354 6.70349C16.6356 6.70369 16.9328 6.76301 17.2101 6.87808C17.4874 6.99314 17.7393 7.16169 17.9514 7.37411C18.1636 7.58652 18.3318 7.83864 18.4465 8.11606C18.5612 8.39349 18.6201 8.69079 18.6199 8.99099C18.6197 9.29119 18.5604 9.58842 18.4453 9.86569C18.3303 10.143 18.1617 10.3949 17.9493 10.607C17.7369 10.8191 17.4848 10.9874 17.2073 11.1021C16.9299 11.2168 16.6326 11.2757 16.3324 11.2755C15.7261 11.2751 15.1448 11.0339 14.7164 10.6049C14.288 10.1759 14.0475 9.59428 14.0479 8.98799C14.0483 8.38171 14.2895 7.80041 14.7185 7.37198C15.1475 6.94356 15.7291 6.70309 16.3354 6.70349Z" fill="black"/>
</g>
<defs>
<clipPath id="clip0_1_5813">
<rect width="24" height="24" fill="white" transform="translate(0.399414)"/>
</clipPath>
</defs>
</svg>
