<svg width="24" height="24" viewBox="0 0 24 24" fill="none" xmlns="http://www.w3.org/2000/svg">
<path d="M15.3584 4.00903C10.8379 4.00903 7.20544 7.66592 7.20544 12.1354C7.20544 16.6418 10.8737 20.2619 15.3573 20.2619C19.8409 20.2619 23.5124 16.605 23.5124 12.1354C23.5124 7.66592 19.842 4.00903 15.3584 4.00903ZM15.3584 15.1644C13.6909 15.1644 12.3202 13.7976 12.3202 12.1354C12.3202 10.4733 13.6909 9.10646 15.3584 9.10646C17.0259 9.10646 18.3971 10.4733 18.3971 12.1354C18.3598 13.7976 17.0259 15.1644 15.3584 15.1644Z" fill="#9747FF"/>
<path d="M7.2054 6.37V18.1901H4.31673L0.611084 6.37H7.2054Z" fill="#9747FF"/>
</svg>
