<svg width="21" height="24" viewBox="0 0 21 24" fill="none" xmlns="http://www.w3.org/2000/svg">
<g clip-path="url(#clip0_1_5793)">
<path d="M17.2584 1.86808C16.1511 0.605932 14.1494 0.0648193 11.5886 0.0648193H4.15656C3.9032 0.0648287 3.65815 0.15522 3.46547 0.319742C3.27279 0.484263 3.14512 0.712123 3.10541 0.962356L0.0108381 20.5889C-0.0506719 20.9759 0.24901 21.3264 0.641275 21.3264H5.22957L6.38188 14.0174L6.34612 14.2463C6.42822 13.7296 6.87007 13.3486 7.3933 13.3486H9.57365C13.8569 13.3486 17.2108 11.6088 18.1905 6.57605C18.2196 6.4272 18.2448 6.28233 18.2666 6.14079C18.1429 6.07531 18.1429 6.07531 18.2666 6.14079C18.5583 4.28063 18.2646 3.01444 17.2584 1.86808Z" fill="#27346A"/>
<path d="M8.13754 5.4707C8.26298 5.41097 8.40017 5.38002 8.5391 5.3801H14.3657C15.0557 5.3801 15.6992 5.425 16.2873 5.51965C16.4519 5.54589 16.6156 5.57722 16.7782 5.61359C17.0087 5.66445 17.2365 5.7267 17.4608 5.8001C17.7499 5.89666 18.0192 6.00911 18.2667 6.14079C18.5583 4.27992 18.2646 3.01444 17.2584 1.86808C16.1504 0.605932 14.1494 0.0648193 11.5886 0.0648193H4.15592C3.63261 0.0648193 3.18742 0.445799 3.10541 0.962356L0.0108385 20.5882C-0.0506714 20.9758 0.249011 21.3258 0.64064 21.3258H5.22957L7.62027 6.16527C7.64378 6.01625 7.70314 5.87518 7.79324 5.75419C7.88335 5.6332 8.00151 5.53591 8.13754 5.4707Z" fill="#27346A"/>
<path d="M18.1905 6.57613C17.2108 11.6082 13.857 13.3487 9.57362 13.3487H7.39264C6.86941 13.3487 6.42747 13.7297 6.34617 14.2464L4.91261 23.3342C4.85905 23.6729 5.12098 23.9798 5.46366 23.9798H9.33147C9.55303 23.9797 9.7673 23.9006 9.93575 23.7567C10.1042 23.6128 10.2158 23.4135 10.2504 23.1946L10.2881 22.9975L11.017 18.3775L11.064 18.1221C11.0986 17.9033 11.2102 17.704 11.3786 17.5601C11.547 17.4161 11.7613 17.337 11.9828 17.3369H12.5617C16.3085 17.3369 19.2423 15.8148 20.0996 11.4124C20.4575 9.57271 20.2723 8.03671 19.3256 6.95782C19.0385 6.63104 18.6819 6.36116 18.2665 6.14087C18.2441 6.28312 18.2197 6.42728 18.1905 6.57613Z" fill="#2790C3"/>
<path d="M17.2412 5.73198C17.0884 5.68737 16.9342 5.64788 16.7788 5.61357C16.6161 5.5778 16.4524 5.54668 16.2879 5.52027C15.6992 5.42499 15.0561 5.38001 14.3655 5.38001H8.53966C8.40062 5.37969 8.26333 5.41091 8.1381 5.47132C8.00191 5.53633 7.88362 5.63356 7.79347 5.75458C7.70333 5.87561 7.64404 6.01679 7.62075 6.16589L6.38244 14.0174L6.34668 14.2463C6.42814 13.7296 6.86999 13.3486 7.3933 13.3486H9.57428C13.8576 13.3486 17.2114 11.6088 18.1911 6.57603C18.2202 6.42719 18.2447 6.28295 18.2672 6.14078C18.0191 6.00981 17.7506 5.89664 17.4614 5.80072C17.3884 5.77653 17.315 5.75361 17.2412 5.73198" fill="#1F264F"/>
</g>
<defs>
<clipPath id="clip0_1_5793">
<rect width="20.3444" height="24" fill="white"/>
</clipPath>
</defs>
</svg>
