<svg width="44" height="14" viewBox="0 0 44 14" fill="none" xmlns="http://www.w3.org/2000/svg">
<g clip-path="url(#clip0_1_5802)">
<path d="M22.6764 4.4577C22.6518 6.40016 24.4075 7.48407 25.7301 8.12857C27.0889 8.78978 27.5453 9.21383 27.5399 9.8052C27.5298 10.7101 26.456 11.1096 25.4513 11.1251C23.6982 11.1522 22.6789 10.6518 21.8686 10.2733L21.2371 13.2283C22.0501 13.6029 23.5555 13.9296 25.1166 13.944C28.7811 13.944 31.1784 12.1351 31.1914 9.33055C31.2058 5.77118 26.2681 5.57416 26.3019 3.98322C26.3135 3.50081 26.7738 2.98602 27.7825 2.85513C28.2818 2.78901 29.66 2.7384 31.2226 3.45797L31.8359 0.598934C30.9956 0.292958 29.9156 -2.95639e-05 28.5709 -2.95639e-05C25.1218 -2.95639e-05 22.6959 1.83346 22.6764 4.4577ZM37.7291 0.246235C37.0599 0.246235 36.4961 0.636548 36.2444 1.23551L31.0099 13.734H34.6717L35.4004 11.7202H39.875L40.2977 13.734H43.5251L40.7087 0.246235H37.7291ZM38.2413 3.88978L39.2981 8.95457H36.404L38.2413 3.88978ZM18.2367 0.246404L15.3503 13.7338H18.8397L21.7247 0.246067H18.2367M13.0747 0.246067L9.44284 9.42652L7.97369 1.62077C7.8013 0.749393 7.12053 0.246235 6.36453 0.246235H0.427517L0.34436 0.637897C1.5632 0.90238 2.94802 1.32896 3.78701 1.78539C4.30046 2.06421 4.44687 2.30795 4.61554 2.9705L7.39817 13.734H11.0856L16.7389 0.246235H13.0747" fill="url(#paint0_linear_1_5802)"/>
</g>
<defs>
<linearGradient id="paint0_linear_1_5802" x1="20.1963" y1="14.2237" x2="20.5999" y2="-0.0970052" gradientUnits="userSpaceOnUse">
<stop stop-color="#222357"/>
<stop offset="1" stop-color="#254AA5"/>
</linearGradient>
<clipPath id="clip0_1_5802">
<rect width="43.1807" height="14" fill="white" transform="translate(0.34436)"/>
</clipPath>
</defs>
</svg>
