<svg width="25" height="24" viewBox="0 0 25 24" fill="none" xmlns="http://www.w3.org/2000/svg">
<g clip-path="url(#clip0_1_5821)">
<path d="M24.0406 14.902C22.4372 21.334 15.9206 25.244 9.49777 23.6406C3.06559 22.0373 -0.844352 15.5209 0.759055 9.09817C2.36237 2.66617 8.86955 -1.24377 15.3017 0.359641C21.7246 1.95358 25.644 8.46995 24.0406 14.902Z" fill="url(#paint0_linear_1_5821)"/>
<path d="M18.113 10.5047C18.3474 8.91099 17.138 8.04849 15.4692 7.47661L16.013 5.31099L14.7005 4.98286L14.1755 7.09224C13.8286 7.00786 13.4724 6.92349 13.1161 6.84849L13.6411 4.72974L12.3286 4.40161L11.7942 6.55786C11.5036 6.49224 11.2224 6.42661 10.9505 6.36099V6.35161L9.13174 5.90161L8.78486 7.30786C8.78486 7.30786 9.75986 7.53286 9.74111 7.54224C10.2755 7.67349 10.3692 8.02974 10.3505 8.31099L9.73174 10.7766C9.76924 10.786 9.81611 10.7954 9.87236 10.8235C9.82549 10.8141 9.77861 10.8047 9.73174 10.786L8.86924 14.236C8.80361 14.3954 8.63486 14.6391 8.26924 14.5454C8.27861 14.5641 7.31299 14.311 7.31299 14.311L6.65674 15.8204L8.37236 16.2516C8.69111 16.336 9.00049 16.411 9.30986 16.4954L8.76611 18.6797L10.0786 19.0079L10.6224 16.8422C10.9786 16.936 11.3349 17.0297 11.6724 17.1141L11.138 19.2704L12.4505 19.5985L12.9942 17.4141C15.2442 17.836 16.9317 17.6672 17.6349 15.6329C18.2067 14.0016 17.6067 13.0547 16.4255 12.436C17.2974 12.2391 17.9442 11.6672 18.113 10.5047ZM15.1036 14.7235C14.7005 16.3547 11.9442 15.4735 11.0536 15.2485L11.7755 12.3516C12.6661 12.5766 15.5349 13.0172 15.1036 14.7235ZM15.5161 10.4766C15.1411 11.9672 12.8536 11.2079 12.113 11.0204L12.7692 8.39536C13.5099 8.58286 15.9005 8.92974 15.5161 10.4766Z" fill="white"/>
</g>
<defs>
<linearGradient id="paint0_linear_1_5821" x1="12.393" y1="-0.00563792" x2="12.393" y2="23.9977" gradientUnits="userSpaceOnUse">
<stop stop-color="#F9AA4B"/>
<stop offset="1" stop-color="#F7931A"/>
</linearGradient>
<clipPath id="clip0_1_5821">
<rect width="24" height="24" fill="white" transform="translate(0.399414)"/>
</clipPath>
</defs>
</svg>
