<svg width="32" height="24" viewBox="0 0 32 24" fill="none" xmlns="http://www.w3.org/2000/svg">
<g clip-path="url(#clip0_1_5804)">
<path d="M6.13797 23.8807V22.2922C6.13797 21.6832 5.76724 21.2861 5.13178 21.2861C4.81411 21.2861 4.46991 21.392 4.2316 21.7362C4.04635 21.445 3.78163 21.2861 3.38448 21.2861C3.11964 21.2861 2.85504 21.3655 2.64314 21.6567V21.3391H2.08716V23.8807H2.64314V22.4775C2.64314 22.0275 2.88145 21.8156 3.25218 21.8156C3.62268 21.8156 3.80816 22.0539 3.80816 22.4775V23.8807H4.36414V22.4775C4.36414 22.0275 4.62875 21.8156 4.97295 21.8156C5.34368 21.8156 5.52893 22.0539 5.52893 22.4775V23.8807H6.13797ZM14.3717 21.3391H13.4716V20.5713H12.9156V21.3391H12.4126V21.842H12.9155V23.007C12.9155 23.5895 13.1538 23.9336 13.7893 23.9336C14.0276 23.9336 14.2922 23.8543 14.4777 23.7484L14.3187 23.2717C14.1599 23.3776 13.9746 23.4042 13.8422 23.4042C13.5775 23.4042 13.4716 23.2453 13.4716 22.9805V21.842H14.3717V21.3391ZM19.0843 21.286C18.7667 21.286 18.5549 21.445 18.4225 21.6567V21.3391H17.8665V23.8807H18.4225V22.451C18.4225 22.0275 18.6077 21.7892 18.9519 21.7892C19.0578 21.7892 19.1902 21.8157 19.2961 21.8421L19.455 21.3127C19.3491 21.2861 19.1902 21.2861 19.0843 21.2861V21.286ZM11.9625 21.5509C11.6976 21.3655 11.327 21.2861 10.9299 21.2861C10.2946 21.2861 9.871 21.6038 9.871 22.1068C9.871 22.5305 10.1887 22.7687 10.7446 22.8482L11.0094 22.8747C11.3006 22.9275 11.4595 23.007 11.4595 23.1394C11.4595 23.3247 11.2477 23.4571 10.8769 23.4571C10.5063 23.4571 10.2151 23.3247 10.0297 23.1924L9.76499 23.6159C10.0562 23.8277 10.4534 23.9336 10.8504 23.9336C11.5918 23.9336 12.0154 23.5895 12.0154 23.1129C12.0154 22.6628 11.6712 22.4245 11.1417 22.3451L10.8769 22.3186C10.6386 22.2921 10.4534 22.2393 10.4534 22.0804C10.4534 21.8951 10.6386 21.7892 10.9299 21.7892C11.2477 21.7892 11.5653 21.9215 11.7242 22.0009L11.9625 21.5509ZM26.7358 21.2861C26.418 21.2861 26.2062 21.445 26.0738 21.6567V21.3391H25.5178V23.8807H26.0738V22.451C26.0738 22.0275 26.2591 21.7892 26.6032 21.7892C26.7092 21.7892 26.8417 21.8157 26.9475 21.8421L27.1064 21.3127C27.0005 21.2861 26.8417 21.2861 26.7358 21.2861ZM19.6403 22.6099C19.6403 23.3776 20.1698 23.9336 20.9906 23.9336C21.3612 23.9336 21.6259 23.8543 21.8907 23.6425L21.6259 23.1924C21.4142 23.3512 21.2024 23.4306 20.9641 23.4306C20.514 23.4306 20.1963 23.1129 20.1963 22.6099C20.1963 22.1334 20.514 21.8156 20.9641 21.7892C21.2024 21.7892 21.4142 21.8685 21.6259 22.0275L21.8907 21.5774C21.6259 21.3655 21.3612 21.2861 20.9906 21.2861C20.1698 21.2861 19.6403 21.8421 19.6403 22.6099ZM24.7766 22.6099V21.3391H24.2206V21.6567C24.0352 21.4186 23.7705 21.2861 23.4263 21.2861C22.7115 21.2861 22.1555 21.8421 22.1555 22.6099C22.1555 23.3776 22.7115 23.9336 23.4263 23.9336C23.7969 23.9336 24.0618 23.8013 24.2206 23.563V23.8807H24.7766V22.6099ZM22.7379 22.6099C22.7379 22.1598 23.0291 21.7892 23.5057 21.7892C23.9557 21.7892 24.2735 22.1334 24.2735 22.6099C24.2735 23.06 23.9557 23.4306 23.5057 23.4306C23.0291 23.404 22.7379 23.06 22.7379 22.6099ZM16.0927 21.2861C15.3513 21.2861 14.8218 21.8156 14.8218 22.6099C14.8218 23.4042 15.3512 23.9336 16.1191 23.9336C16.4897 23.9336 16.8604 23.8277 17.1517 23.5895L16.8868 23.1924C16.6751 23.3512 16.4103 23.4571 16.1456 23.4571C15.8014 23.4571 15.4572 23.2983 15.3777 22.8481H17.2576V22.6364C17.2841 21.8156 16.8075 21.2861 16.0925 21.2861H16.0927ZM16.0927 21.7626C16.4367 21.7626 16.6752 21.9745 16.728 22.3717H15.4043C15.4572 22.0275 15.6955 21.7626 16.0927 21.7626ZM29.8863 22.6099V20.333H29.3303V21.6567C29.1449 21.4186 28.8802 21.2861 28.536 21.2861C27.8212 21.2861 27.2652 21.8421 27.2652 22.6099C27.2652 23.3776 27.8212 23.9336 28.536 23.9336C28.9067 23.9336 29.1715 23.8013 29.3303 23.563V23.8807H29.8863V22.6099ZM27.8477 22.6099C27.8477 22.1598 28.1389 21.7892 28.6155 21.7892C29.0656 21.7892 29.3832 22.1334 29.3832 22.6099C29.3832 23.06 29.0656 23.4306 28.6155 23.4306C28.1389 23.404 27.8477 23.06 27.8477 22.6099ZM9.26195 22.6099V21.3391H8.70597V21.6567C8.52061 21.4186 8.25588 21.2861 7.91168 21.2861C7.19687 21.2861 6.64089 21.8421 6.64089 22.6099C6.64089 23.3776 7.19687 23.9336 7.91168 23.9336C8.28241 23.9336 8.54714 23.8013 8.70597 23.563V23.8807H9.26195V22.6099ZM7.19687 22.6099C7.19687 22.1598 7.48812 21.7892 7.96463 21.7892C8.41472 21.7892 8.73251 22.1334 8.73251 22.6099C8.73251 23.06 8.41472 23.4306 7.96463 23.4306C7.48812 23.404 7.19687 23.06 7.19687 22.6099Z" fill="black"/>
<path d="M11.7772 2.03857H20.1169V17.0236H11.7772V2.03857Z" fill="#FF5F00"/>
<path d="M12.3067 9.53114C12.3067 6.48651 13.7364 3.78597 15.9338 2.03855C14.3189 0.767759 12.2803 0 10.0564 0C4.78762 0 0.525146 4.26247 0.525146 9.53114C0.525146 14.7997 4.78762 19.0623 10.0563 19.0623C12.2802 19.0623 14.3188 18.2945 15.9338 17.0236C13.7364 15.3027 12.3067 12.5758 12.3067 9.53114Z" fill="#EB001B"/>
<path d="M31.3689 9.53114C31.3689 14.7997 27.1065 19.0623 21.8378 19.0623C19.6139 19.0623 17.5753 18.2945 15.9603 17.0236C18.1842 15.2763 19.5875 12.5758 19.5875 9.53114C19.5875 6.48651 18.1577 3.78597 15.9603 2.03855C17.5752 0.767759 19.6139 0 21.8378 0C27.1065 0 31.3691 4.28901 31.3691 9.53114H31.3689Z" fill="#F79E1B"/>
</g>
<defs>
<clipPath id="clip0_1_5804">
<rect width="30.8744" height="24" fill="white" transform="translate(0.525146)"/>
</clipPath>
</defs>
</svg>
