<svg width="20" height="20" viewBox="0 0 20 20" fill="none" xmlns="http://www.w3.org/2000/svg">
<g id="material-symbols:arrow-forward-ios-rounded">
<path id="Vector" d="M5.95837 17.5835C5.75004 17.3752 5.64587 17.1285 5.64587 16.8435C5.64587 16.5591 5.75004 16.3127 5.95837 16.1043L12.0625 10.0002L5.93754 3.87516C5.7431 3.68072 5.64587 3.43766 5.64587 3.146C5.64587 2.85433 5.75004 2.60433 5.95837 2.396C6.16671 2.18766 6.41337 2.0835 6.69837 2.0835C6.98282 2.0835 7.22921 2.18766 7.43754 2.396L14.4375 9.41683C14.5209 9.50016 14.58 9.59044 14.615 9.68766C14.6495 9.78488 14.6667 9.88905 14.6667 10.0002C14.6667 10.1113 14.6495 10.2154 14.615 10.3127C14.58 10.4099 14.5209 10.5002 14.4375 10.5835L7.41671 17.6043C7.22226 17.7988 6.98282 17.896 6.69837 17.896C6.41337 17.896 6.16671 17.7918 5.95837 17.5835Z" fill="black" fill-opacity="0.6"/>
</g>
</svg>
