<svg width="182" height="182" viewBox="0 0 182 182" fill="none" xmlns="http://www.w3.org/2000/svg">
<path d="M69.3387 0.484802H62.909V6.9145H69.3387V0.484802Z" fill="black"/>
<path d="M81.8235 0.484802H75.3938V6.9145H81.8235V0.484802Z" fill="black"/>
<path d="M106.793 0.484802H100.364V6.9145H106.793V0.484802Z" fill="black"/>
<path d="M119.278 0.484802H112.848V6.9145H119.278V0.484802Z" fill="black"/>
<path d="M125.52 0.484802H119.091V6.9145H125.52V0.484802Z" fill="black"/>
<path d="M131.763 0.484802H125.333V6.9145H131.763V0.484802Z" fill="black"/>
<path d="M63.0963 6.72729H56.6666V13.157H63.0963V6.72729Z" fill="black"/>
<path d="M69.3387 6.72729H62.909V13.157H69.3387V6.72729Z" fill="black"/>
<path d="M81.8235 6.72729H75.3938V13.157H81.8235V6.72729Z" fill="black"/>
<path d="M88.0659 6.72729H81.6362V13.157H88.0659V6.72729Z" fill="black"/>
<path d="M100.551 6.72729H94.1212V13.157H100.551V6.72729Z" fill="black"/>
<path d="M106.793 6.72729H100.364V13.157H106.793V6.72729Z" fill="black"/>
<path d="M113.036 6.72729H106.606V13.157H113.036V6.72729Z" fill="black"/>
<path d="M119.278 6.72729H112.848V13.157H119.278V6.72729Z" fill="black"/>
<path d="M56.8537 12.9697H50.424V19.3994H56.8537V12.9697Z" fill="black"/>
<path d="M69.3387 12.9697H62.909V19.3994H69.3387V12.9697Z" fill="black"/>
<path d="M81.8235 12.9697H75.3938V19.3994H81.8235V12.9697Z" fill="black"/>
<path d="M100.551 12.9697H94.1212V19.3994H100.551V12.9697Z" fill="black"/>
<path d="M125.52 12.9697H119.091V19.3994H125.52V12.9697Z" fill="black"/>
<path d="M131.763 12.9697H125.333V19.3994H131.763V12.9697Z" fill="black"/>
<path d="M56.8537 19.2121H50.424V25.6418H56.8537V19.2121Z" fill="black"/>
<path d="M63.0963 19.2121H56.6666V25.6418H63.0963V19.2121Z" fill="black"/>
<path d="M69.3387 19.2121H62.909V25.6418H69.3387V19.2121Z" fill="black"/>
<path d="M75.5811 19.2121H69.1514V25.6418H75.5811V19.2121Z" fill="black"/>
<path d="M81.8235 19.2121H75.3938V25.6418H81.8235V19.2121Z" fill="black"/>
<path d="M88.0659 19.2121H81.6362V25.6418H88.0659V19.2121Z" fill="black"/>
<path d="M100.551 19.2121H94.1212V25.6418H100.551V19.2121Z" fill="black"/>
<path d="M113.036 19.2121H106.606V25.6418H113.036V19.2121Z" fill="black"/>
<path d="M125.52 19.2121H119.091V25.6418H125.52V19.2121Z" fill="black"/>
<path d="M56.8537 25.4545H50.424V31.8842H56.8537V25.4545Z" fill="black"/>
<path d="M63.0963 25.4545H56.6666V31.8842H63.0963V25.4545Z" fill="black"/>
<path d="M69.3387 25.4545H62.909V31.8842H69.3387V25.4545Z" fill="black"/>
<path d="M75.5811 25.4545H69.1514V31.8842H75.5811V25.4545Z" fill="black"/>
<path d="M88.0659 25.4545H81.6362V31.8842H88.0659V25.4545Z" fill="black"/>
<path d="M106.793 25.4545H100.364V31.8842H106.793V25.4545Z" fill="black"/>
<path d="M113.036 25.4545H106.606V31.8842H113.036V25.4545Z" fill="black"/>
<path d="M119.278 25.4545H112.848V31.8842H119.278V25.4545Z" fill="black"/>
<path d="M125.52 25.4545H119.091V31.8842H125.52V25.4545Z" fill="black"/>
<path d="M56.8537 31.697H50.424V38.1267H56.8537V31.697Z" fill="black"/>
<path d="M69.3387 31.697H62.909V38.1267H69.3387V31.697Z" fill="black"/>
<path d="M88.0659 31.697H81.6362V38.1267H88.0659V31.697Z" fill="black"/>
<path d="M94.3084 31.697H87.8787V38.1267H94.3084V31.697Z" fill="black"/>
<path d="M100.551 31.697H94.1212V38.1267H100.551V31.697Z" fill="black"/>
<path d="M113.036 31.697H106.606V38.1267H113.036V31.697Z" fill="black"/>
<path d="M131.763 31.697H125.333V38.1267H131.763V31.697Z" fill="black"/>
<path d="M56.8537 37.9393H50.424V44.369H56.8537V37.9393Z" fill="black"/>
<path d="M69.3387 37.9393H62.909V44.369H69.3387V37.9393Z" fill="black"/>
<path d="M81.8235 37.9393H75.3938V44.369H81.8235V37.9393Z" fill="black"/>
<path d="M94.3084 37.9393H87.8787V44.369H94.3084V37.9393Z" fill="black"/>
<path d="M106.793 37.9393H100.364V44.369H106.793V37.9393Z" fill="black"/>
<path d="M119.278 37.9393H112.848V44.369H119.278V37.9393Z" fill="black"/>
<path d="M131.763 37.9393H125.333V44.369H131.763V37.9393Z" fill="black"/>
<path d="M56.8537 44.1818H50.424V50.6115H56.8537V44.1818Z" fill="black"/>
<path d="M69.3387 44.1818H62.909V50.6115H69.3387V44.1818Z" fill="black"/>
<path d="M75.5811 44.1818H69.1514V50.6115H75.5811V44.1818Z" fill="black"/>
<path d="M94.3084 44.1818H87.8787V50.6115H94.3084V44.1818Z" fill="black"/>
<path d="M100.551 44.1818H94.1212V50.6115H100.551V44.1818Z" fill="black"/>
<path d="M106.793 44.1818H100.364V50.6115H106.793V44.1818Z" fill="black"/>
<path d="M131.763 44.1818H125.333V50.6115H131.763V44.1818Z" fill="black"/>
<path d="M6.91444 50.4243H0.484741V56.854H6.91444V50.4243Z" fill="black"/>
<path d="M19.3992 50.4243H12.9695V56.854H19.3992V50.4243Z" fill="black"/>
<path d="M25.6418 50.4243H19.2121V56.854H25.6418V50.4243Z" fill="black"/>
<path d="M31.8842 50.4243H25.4545V56.854H31.8842V50.4243Z" fill="black"/>
<path d="M38.1265 50.4243H31.6968V56.854H38.1265V50.4243Z" fill="black"/>
<path d="M44.369 50.4243H37.9393V56.854H44.369V50.4243Z" fill="black"/>
<path d="M69.3387 50.4243H62.909V56.854H69.3387V50.4243Z" fill="black"/>
<path d="M113.036 50.4243H106.606V56.854H113.036V50.4243Z" fill="black"/>
<path d="M125.52 50.4243H119.091V56.854H125.52V50.4243Z" fill="black"/>
<path d="M144.248 50.4243H137.818V56.854H144.248V50.4243Z" fill="black"/>
<path d="M150.49 50.4243H144.06V56.854H150.49V50.4243Z" fill="black"/>
<path d="M156.733 50.4243H150.303V56.854H156.733V50.4243Z" fill="black"/>
<path d="M162.975 50.4243H156.545V56.854H162.975V50.4243Z" fill="black"/>
<path d="M169.217 50.4243H162.788V56.854H169.217V50.4243Z" fill="black"/>
<path d="M31.8842 56.6667H25.4545V63.0964H31.8842V56.6667Z" fill="black"/>
<path d="M50.6113 56.6667H44.1816V63.0964H50.6113V56.6667Z" fill="black"/>
<path d="M63.0963 56.6667H56.6666V63.0964H63.0963V56.6667Z" fill="black"/>
<path d="M75.5811 56.6667H69.1514V63.0964H75.5811V56.6667Z" fill="black"/>
<path d="M88.0659 56.6667H81.6362V63.0964H88.0659V56.6667Z" fill="black"/>
<path d="M106.793 56.6667H100.364V63.0964H106.793V56.6667Z" fill="black"/>
<path d="M113.036 56.6667H106.606V63.0964H113.036V56.6667Z" fill="black"/>
<path d="M119.278 56.6667H112.848V63.0964H119.278V56.6667Z" fill="black"/>
<path d="M125.52 56.6667H119.091V63.0964H125.52V56.6667Z" fill="black"/>
<path d="M131.763 56.6667H125.333V63.0964H131.763V56.6667Z" fill="black"/>
<path d="M138.005 56.6667H131.576V63.0964H138.005V56.6667Z" fill="black"/>
<path d="M144.248 56.6667H137.818V63.0964H144.248V56.6667Z" fill="black"/>
<path d="M150.49 56.6667H144.06V63.0964H150.49V56.6667Z" fill="black"/>
<path d="M156.733 56.6667H150.303V63.0964H156.733V56.6667Z" fill="black"/>
<path d="M181.702 56.6667H175.273V63.0964H181.702V56.6667Z" fill="black"/>
<path d="M6.91444 62.9091H0.484741V69.3388H6.91444V62.9091Z" fill="black"/>
<path d="M25.6418 62.9091H19.2121V69.3388H25.6418V62.9091Z" fill="black"/>
<path d="M31.8842 62.9091H25.4545V69.3388H31.8842V62.9091Z" fill="black"/>
<path d="M44.369 62.9091H37.9393V69.3388H44.369V62.9091Z" fill="black"/>
<path d="M50.6113 62.9091H44.1816V69.3388H50.6113V62.9091Z" fill="black"/>
<path d="M63.0963 62.9091H56.6666V69.3388H63.0963V62.9091Z" fill="black"/>
<path d="M69.3387 62.9091H62.909V69.3388H69.3387V62.9091Z" fill="black"/>
<path d="M75.5811 62.9091H69.1514V69.3388H75.5811V62.9091Z" fill="black"/>
<path d="M88.0659 62.9091H81.6362V69.3388H88.0659V62.9091Z" fill="black"/>
<path d="M94.3084 62.9091H87.8787V69.3388H94.3084V62.9091Z" fill="black"/>
<path d="M100.551 62.9091H94.1212V69.3388H100.551V62.9091Z" fill="black"/>
<path d="M106.793 62.9091H100.364V69.3388H106.793V62.9091Z" fill="black"/>
<path d="M131.763 62.9091H125.333V69.3388H131.763V62.9091Z" fill="black"/>
<path d="M138.005 62.9091H131.576V69.3388H138.005V62.9091Z" fill="black"/>
<path d="M144.248 62.9091H137.818V69.3388H144.248V62.9091Z" fill="black"/>
<path d="M25.6418 69.1515H19.2121V75.5812H25.6418V69.1515Z" fill="black"/>
<path d="M31.8842 69.1515H25.4545V75.5812H31.8842V69.1515Z" fill="black"/>
<path d="M38.1265 69.1515H31.6968V75.5812H38.1265V69.1515Z" fill="black"/>
<path d="M50.6113 69.1515H44.1816V75.5812H50.6113V69.1515Z" fill="black"/>
<path d="M56.8537 69.1515H50.424V75.5812H56.8537V69.1515Z" fill="black"/>
<path d="M75.5811 69.1515H69.1514V75.5812H75.5811V69.1515Z" fill="black"/>
<path d="M88.0659 69.1515H81.6362V75.5812H88.0659V69.1515Z" fill="black"/>
<path d="M106.793 69.1515H100.364V75.5812H106.793V69.1515Z" fill="black"/>
<path d="M150.49 69.1515H144.06V75.5812H150.49V69.1515Z" fill="black"/>
<path d="M162.975 69.1515H156.545V75.5812H162.975V69.1515Z" fill="black"/>
<path d="M175.46 69.1515H169.03V75.5812H175.46V69.1515Z" fill="black"/>
<path d="M6.91444 75.3939H0.484741V81.8236H6.91444V75.3939Z" fill="black"/>
<path d="M19.3992 75.3939H12.9695V81.8236H19.3992V75.3939Z" fill="black"/>
<path d="M38.1265 75.3939H31.6968V81.8236H38.1265V75.3939Z" fill="black"/>
<path d="M44.369 75.3939H37.9393V81.8236H44.369V75.3939Z" fill="black"/>
<path d="M56.8537 75.3939H50.424V81.8236H56.8537V75.3939Z" fill="black"/>
<path d="M63.0963 75.3939H56.6666V81.8236H63.0963V75.3939Z" fill="black"/>
<path d="M94.3084 75.3939H87.8787V81.8236H94.3084V75.3939Z" fill="black"/>
<path d="M100.551 75.3939H94.1212V81.8236H100.551V75.3939Z" fill="black"/>
<path d="M113.036 75.3939H106.606V81.8236H113.036V75.3939Z" fill="black"/>
<path d="M119.278 75.3939H112.848V81.8236H119.278V75.3939Z" fill="black"/>
<path d="M162.975 75.3939H156.545V81.8236H162.975V75.3939Z" fill="black"/>
<path d="M169.217 75.3939H162.788V81.8236H169.217V75.3939Z" fill="black"/>
<path d="M6.91444 81.6363H0.484741V88.066H6.91444V81.6363Z" fill="black"/>
<path d="M13.1568 81.6363H6.72711V88.066H13.1568V81.6363Z" fill="black"/>
<path d="M56.8537 81.6363H50.424V88.066H56.8537V81.6363Z" fill="black"/>
<path d="M81.8235 81.6363H75.3938V88.066H81.8235V81.6363Z" fill="black"/>
<path d="M106.793 81.6363H100.364V88.066H106.793V81.6363Z" fill="black"/>
<path d="M113.036 81.6363H106.606V88.066H113.036V81.6363Z" fill="black"/>
<path d="M119.278 81.6363H112.848V88.066H119.278V81.6363Z" fill="black"/>
<path d="M125.52 81.6363H119.091V88.066H125.52V81.6363Z" fill="black"/>
<path d="M131.763 81.6363H125.333V88.066H131.763V81.6363Z" fill="black"/>
<path d="M138.005 81.6363H131.576V88.066H138.005V81.6363Z" fill="black"/>
<path d="M144.248 81.6363H137.818V88.066H144.248V81.6363Z" fill="black"/>
<path d="M156.733 81.6363H150.303V88.066H156.733V81.6363Z" fill="black"/>
<path d="M181.702 81.6363H175.273V88.066H181.702V81.6363Z" fill="black"/>
<path d="M25.6418 87.8788H19.2121V94.3085H25.6418V87.8788Z" fill="black"/>
<path d="M31.8842 87.8788H25.4545V94.3085H31.8842V87.8788Z" fill="black"/>
<path d="M38.1265 87.8788H31.6968V94.3085H38.1265V87.8788Z" fill="black"/>
<path d="M44.369 87.8788H37.9393V94.3085H44.369V87.8788Z" fill="black"/>
<path d="M63.0963 87.8788H56.6666V94.3085H63.0963V87.8788Z" fill="black"/>
<path d="M100.551 87.8788H94.1212V94.3085H100.551V87.8788Z" fill="black"/>
<path d="M106.793 87.8788H100.364V94.3085H106.793V87.8788Z" fill="black"/>
<path d="M113.036 87.8788H106.606V94.3085H113.036V87.8788Z" fill="black"/>
<path d="M144.248 87.8788H137.818V94.3085H144.248V87.8788Z" fill="black"/>
<path d="M150.49 87.8788H144.06V94.3085H150.49V87.8788Z" fill="black"/>
<path d="M162.975 87.8788H156.545V94.3085H162.975V87.8788Z" fill="black"/>
<path d="M169.217 87.8788H162.788V94.3085H169.217V87.8788Z" fill="black"/>
<path d="M19.3992 94.1212H12.9695V100.551H19.3992V94.1212Z" fill="black"/>
<path d="M25.6418 94.1212H19.2121V100.551H25.6418V94.1212Z" fill="black"/>
<path d="M31.8842 94.1212H25.4545V100.551H31.8842V94.1212Z" fill="black"/>
<path d="M75.5811 94.1212H69.1514V100.551H75.5811V94.1212Z" fill="black"/>
<path d="M94.3084 94.1212H87.8787V100.551H94.3084V94.1212Z" fill="black"/>
<path d="M100.551 94.1212H94.1212V100.551H100.551V94.1212Z" fill="black"/>
<path d="M125.52 94.1212H119.091V100.551H125.52V94.1212Z" fill="black"/>
<path d="M138.005 94.1212H131.576V100.551H138.005V94.1212Z" fill="black"/>
<path d="M144.248 94.1212H137.818V100.551H144.248V94.1212Z" fill="black"/>
<path d="M150.49 94.1212H144.06V100.551H150.49V94.1212Z" fill="black"/>
<path d="M156.733 94.1212H150.303V100.551H156.733V94.1212Z" fill="black"/>
<path d="M175.46 94.1212H169.03V100.551H175.46V94.1212Z" fill="black"/>
<path d="M6.91444 100.364H0.484741V106.793H6.91444V100.364Z" fill="black"/>
<path d="M19.3992 100.364H12.9695V106.793H19.3992V100.364Z" fill="black"/>
<path d="M31.8842 100.364H25.4545V106.793H31.8842V100.364Z" fill="black"/>
<path d="M44.369 100.364H37.9393V106.793H44.369V100.364Z" fill="black"/>
<path d="M63.0963 100.364H56.6666V106.793H63.0963V100.364Z" fill="black"/>
<path d="M69.3387 100.364H62.909V106.793H69.3387V100.364Z" fill="black"/>
<path d="M75.5811 100.364H69.1514V106.793H75.5811V100.364Z" fill="black"/>
<path d="M100.551 100.364H94.1212V106.793H100.551V100.364Z" fill="black"/>
<path d="M113.036 100.364H106.606V106.793H113.036V100.364Z" fill="black"/>
<path d="M131.763 100.364H125.333V106.793H131.763V100.364Z" fill="black"/>
<path d="M150.49 100.364H144.06V106.793H150.49V100.364Z" fill="black"/>
<path d="M162.975 100.364H156.545V106.793H162.975V100.364Z" fill="black"/>
<path d="M169.217 100.364H162.788V106.793H169.217V100.364Z" fill="black"/>
<path d="M6.91444 106.606H0.484741V113.036H6.91444V106.606Z" fill="black"/>
<path d="M13.1568 106.606H6.72711V113.036H13.1568V106.606Z" fill="black"/>
<path d="M19.3992 106.606H12.9695V113.036H19.3992V106.606Z" fill="black"/>
<path d="M25.6418 106.606H19.2121V113.036H25.6418V106.606Z" fill="black"/>
<path d="M31.8842 106.606H25.4545V113.036H31.8842V106.606Z" fill="black"/>
<path d="M69.3387 106.606H62.909V113.036H69.3387V106.606Z" fill="black"/>
<path d="M75.5811 106.606H69.1514V113.036H75.5811V106.606Z" fill="black"/>
<path d="M81.8235 106.606H75.3938V113.036H81.8235V106.606Z" fill="black"/>
<path d="M88.0659 106.606H81.6362V113.036H88.0659V106.606Z" fill="black"/>
<path d="M94.3084 106.606H87.8787V113.036H94.3084V106.606Z" fill="black"/>
<path d="M106.793 106.606H100.364V113.036H106.793V106.606Z" fill="black"/>
<path d="M125.52 106.606H119.091V113.036H125.52V106.606Z" fill="black"/>
<path d="M131.763 106.606H125.333V113.036H131.763V106.606Z" fill="black"/>
<path d="M144.248 106.606H137.818V113.036H144.248V106.606Z" fill="black"/>
<path d="M150.49 106.606H144.06V113.036H150.49V106.606Z" fill="black"/>
<path d="M156.733 106.606H150.303V113.036H156.733V106.606Z" fill="black"/>
<path d="M169.217 106.606H162.788V113.036H169.217V106.606Z" fill="black"/>
<path d="M181.702 106.606H175.273V113.036H181.702V106.606Z" fill="black"/>
<path d="M6.91444 112.848H0.484741V119.278H6.91444V112.848Z" fill="black"/>
<path d="M19.3992 112.848H12.9695V119.278H19.3992V112.848Z" fill="black"/>
<path d="M25.6418 112.848H19.2121V119.278H25.6418V112.848Z" fill="black"/>
<path d="M31.8842 112.848H25.4545V119.278H31.8842V112.848Z" fill="black"/>
<path d="M38.1265 112.848H31.6968V119.278H38.1265V112.848Z" fill="black"/>
<path d="M44.369 112.848H37.9393V119.278H44.369V112.848Z" fill="black"/>
<path d="M50.6113 112.848H44.1816V119.278H50.6113V112.848Z" fill="black"/>
<path d="M56.8537 112.848H50.424V119.278H56.8537V112.848Z" fill="black"/>
<path d="M88.0659 112.848H81.6362V119.278H88.0659V112.848Z" fill="black"/>
<path d="M94.3084 112.848H87.8787V119.278H94.3084V112.848Z" fill="black"/>
<path d="M100.551 112.848H94.1212V119.278H100.551V112.848Z" fill="black"/>
<path d="M113.036 112.848H106.606V119.278H113.036V112.848Z" fill="black"/>
<path d="M131.763 112.848H125.333V119.278H131.763V112.848Z" fill="black"/>
<path d="M138.005 112.848H131.576V119.278H138.005V112.848Z" fill="black"/>
<path d="M150.49 112.848H144.06V119.278H150.49V112.848Z" fill="black"/>
<path d="M169.217 112.848H162.788V119.278H169.217V112.848Z" fill="black"/>
<path d="M6.91444 119.091H0.484741V125.521H6.91444V119.091Z" fill="black"/>
<path d="M19.3992 119.091H12.9695V125.521H19.3992V119.091Z" fill="black"/>
<path d="M25.6418 119.091H19.2121V125.521H25.6418V119.091Z" fill="black"/>
<path d="M56.8537 119.091H50.424V125.521H56.8537V119.091Z" fill="black"/>
<path d="M88.0659 119.091H81.6362V125.521H88.0659V119.091Z" fill="black"/>
<path d="M100.551 119.091H94.1212V125.521H100.551V119.091Z" fill="black"/>
<path d="M106.793 119.091H100.364V125.521H106.793V119.091Z" fill="black"/>
<path d="M119.278 119.091H112.848V125.521H119.278V119.091Z" fill="black"/>
<path d="M125.52 119.091H119.091V125.521H125.52V119.091Z" fill="black"/>
<path d="M131.763 119.091H125.333V125.521H131.763V119.091Z" fill="black"/>
<path d="M144.248 119.091H137.818V125.521H144.248V119.091Z" fill="black"/>
<path d="M150.49 119.091H144.06V125.521H150.49V119.091Z" fill="black"/>
<path d="M156.733 119.091H150.303V125.521H156.733V119.091Z" fill="black"/>
<path d="M175.46 119.091H169.03V125.521H175.46V119.091Z" fill="black"/>
<path d="M6.91444 125.333H0.484741V131.763H6.91444V125.333Z" fill="black"/>
<path d="M19.3992 125.333H12.9695V131.763H19.3992V125.333Z" fill="black"/>
<path d="M25.6418 125.333H19.2121V131.763H25.6418V125.333Z" fill="black"/>
<path d="M31.8842 125.333H25.4545V131.763H31.8842V125.333Z" fill="black"/>
<path d="M44.369 125.333H37.9393V131.763H44.369V125.333Z" fill="black"/>
<path d="M50.6113 125.333H44.1816V131.763H50.6113V125.333Z" fill="black"/>
<path d="M56.8537 125.333H50.424V131.763H56.8537V125.333Z" fill="black"/>
<path d="M63.0963 125.333H56.6666V131.763H63.0963V125.333Z" fill="black"/>
<path d="M69.3387 125.333H62.909V131.763H69.3387V125.333Z" fill="black"/>
<path d="M75.5811 125.333H69.1514V131.763H75.5811V125.333Z" fill="black"/>
<path d="M94.3084 125.333H87.8787V131.763H94.3084V125.333Z" fill="black"/>
<path d="M100.551 125.333H94.1212V131.763H100.551V125.333Z" fill="black"/>
<path d="M106.793 125.333H100.364V131.763H106.793V125.333Z" fill="black"/>
<path d="M113.036 125.333H106.606V131.763H113.036V125.333Z" fill="black"/>
<path d="M131.763 125.333H125.333V131.763H131.763V125.333Z" fill="black"/>
<path d="M138.005 125.333H131.576V131.763H138.005V125.333Z" fill="black"/>
<path d="M144.248 125.333H137.818V131.763H144.248V125.333Z" fill="black"/>
<path d="M150.49 125.333H144.06V131.763H150.49V125.333Z" fill="black"/>
<path d="M156.733 125.333H150.303V131.763H156.733V125.333Z" fill="black"/>
<path d="M169.217 125.333H162.788V131.763H169.217V125.333Z" fill="black"/>
<path d="M175.46 125.333H169.03V131.763H175.46V125.333Z" fill="black"/>
<path d="M181.702 125.333H175.273V131.763H181.702V125.333Z" fill="black"/>
<path d="M56.8537 131.576H50.424V138.005H56.8537V131.576Z" fill="black"/>
<path d="M63.0963 131.576H56.6666V138.005H63.0963V131.576Z" fill="black"/>
<path d="M81.8235 131.576H75.3938V138.005H81.8235V131.576Z" fill="black"/>
<path d="M106.793 131.576H100.364V138.005H106.793V131.576Z" fill="black"/>
<path d="M113.036 131.576H106.606V138.005H113.036V131.576Z" fill="black"/>
<path d="M119.278 131.576H112.848V138.005H119.278V131.576Z" fill="black"/>
<path d="M131.763 131.576H125.333V138.005H131.763V131.576Z" fill="black"/>
<path d="M156.733 131.576H150.303V138.005H156.733V131.576Z" fill="black"/>
<path d="M162.975 131.576H156.545V138.005H162.975V131.576Z" fill="black"/>
<path d="M169.217 131.576H162.788V138.005H169.217V131.576Z" fill="black"/>
<path d="M175.46 131.576H169.03V138.005H175.46V131.576Z" fill="black"/>
<path d="M181.702 131.576H175.273V138.005H181.702V131.576Z" fill="black"/>
<path d="M63.0963 137.818H56.6666V144.248H63.0963V137.818Z" fill="black"/>
<path d="M75.5811 137.818H69.1514V144.248H75.5811V137.818Z" fill="black"/>
<path d="M81.8235 137.818H75.3938V144.248H81.8235V137.818Z" fill="black"/>
<path d="M100.551 137.818H94.1212V144.248H100.551V137.818Z" fill="black"/>
<path d="M106.793 137.818H100.364V144.248H106.793V137.818Z" fill="black"/>
<path d="M113.036 137.818H106.606V144.248H113.036V137.818Z" fill="black"/>
<path d="M125.52 137.818H119.091V144.248H125.52V137.818Z" fill="black"/>
<path d="M131.763 137.818H125.333V144.248H131.763V137.818Z" fill="black"/>
<path d="M144.248 137.818H137.818V144.248H144.248V137.818Z" fill="black"/>
<path d="M156.733 137.818H150.303V144.248H156.733V137.818Z" fill="black"/>
<path d="M162.975 137.818H156.545V144.248H162.975V137.818Z" fill="black"/>
<path d="M169.217 137.818H162.788V144.248H169.217V137.818Z" fill="black"/>
<path d="M56.8537 144.061H50.424V150.49H56.8537V144.061Z" fill="black"/>
<path d="M63.0963 144.061H56.6666V150.49H63.0963V144.061Z" fill="black"/>
<path d="M69.3387 144.061H62.909V150.49H69.3387V144.061Z" fill="black"/>
<path d="M75.5811 144.061H69.1514V150.49H75.5811V144.061Z" fill="black"/>
<path d="M81.8235 144.061H75.3938V150.49H81.8235V144.061Z" fill="black"/>
<path d="M94.3084 144.061H87.8787V150.49H94.3084V144.061Z" fill="black"/>
<path d="M100.551 144.061H94.1212V150.49H100.551V144.061Z" fill="black"/>
<path d="M106.793 144.061H100.364V150.49H106.793V144.061Z" fill="black"/>
<path d="M125.52 144.061H119.091V150.49H125.52V144.061Z" fill="black"/>
<path d="M131.763 144.061H125.333V150.49H131.763V144.061Z" fill="black"/>
<path d="M156.733 144.061H150.303V150.49H156.733V144.061Z" fill="black"/>
<path d="M175.46 144.061H169.03V150.49H175.46V144.061Z" fill="black"/>
<path d="M181.702 144.061H175.273V150.49H181.702V144.061Z" fill="black"/>
<path d="M56.8537 150.303H50.424V156.733H56.8537V150.303Z" fill="black"/>
<path d="M63.0963 150.303H56.6666V156.733H63.0963V150.303Z" fill="black"/>
<path d="M81.8235 150.303H75.3938V156.733H81.8235V150.303Z" fill="black"/>
<path d="M100.551 150.303H94.1212V156.733H100.551V150.303Z" fill="black"/>
<path d="M113.036 150.303H106.606V156.733H113.036V150.303Z" fill="black"/>
<path d="M131.763 150.303H125.333V156.733H131.763V150.303Z" fill="black"/>
<path d="M138.005 150.303H131.576V156.733H138.005V150.303Z" fill="black"/>
<path d="M144.248 150.303H137.818V156.733H144.248V150.303Z" fill="black"/>
<path d="M150.49 150.303H144.06V156.733H150.49V150.303Z" fill="black"/>
<path d="M156.733 150.303H150.303V156.733H156.733V150.303Z" fill="black"/>
<path d="M169.217 150.303H162.788V156.733H169.217V150.303Z" fill="black"/>
<path d="M56.8537 156.545H50.424V162.975H56.8537V156.545Z" fill="black"/>
<path d="M63.0963 156.545H56.6666V162.975H63.0963V156.545Z" fill="black"/>
<path d="M81.8235 156.545H75.3938V162.975H81.8235V156.545Z" fill="black"/>
<path d="M94.3084 156.545H87.8787V162.975H94.3084V156.545Z" fill="black"/>
<path d="M106.793 156.545H100.364V162.975H106.793V156.545Z" fill="black"/>
<path d="M113.036 156.545H106.606V162.975H113.036V156.545Z" fill="black"/>
<path d="M119.278 156.545H112.848V162.975H119.278V156.545Z" fill="black"/>
<path d="M125.52 156.545H119.091V162.975H125.52V156.545Z" fill="black"/>
<path d="M150.49 156.545H144.06V162.975H150.49V156.545Z" fill="black"/>
<path d="M162.975 156.545H156.545V162.975H162.975V156.545Z" fill="black"/>
<path d="M169.217 156.545H162.788V162.975H169.217V156.545Z" fill="black"/>
<path d="M175.46 156.545H169.03V162.975H175.46V156.545Z" fill="black"/>
<path d="M181.702 156.545H175.273V162.975H181.702V156.545Z" fill="black"/>
<path d="M56.8537 162.788H50.424V169.218H56.8537V162.788Z" fill="black"/>
<path d="M63.0963 162.788H56.6666V169.218H63.0963V162.788Z" fill="black"/>
<path d="M69.3387 162.788H62.909V169.218H69.3387V162.788Z" fill="black"/>
<path d="M94.3084 162.788H87.8787V169.218H94.3084V162.788Z" fill="black"/>
<path d="M100.551 162.788H94.1212V169.218H100.551V162.788Z" fill="black"/>
<path d="M106.793 162.788H100.364V169.218H106.793V162.788Z" fill="black"/>
<path d="M119.278 162.788H112.848V169.218H119.278V162.788Z" fill="black"/>
<path d="M144.248 162.788H137.818V169.218H144.248V162.788Z" fill="black"/>
<path d="M150.49 162.788H144.06V169.218H150.49V162.788Z" fill="black"/>
<path d="M156.733 162.788H150.303V169.218H156.733V162.788Z" fill="black"/>
<path d="M162.975 162.788H156.545V169.218H162.975V162.788Z" fill="black"/>
<path d="M169.217 162.788H162.788V169.218H169.217V162.788Z" fill="black"/>
<path d="M175.46 162.788H169.03V169.218H175.46V162.788Z" fill="black"/>
<path d="M63.0963 169.03H56.6666V175.46H63.0963V169.03Z" fill="black"/>
<path d="M81.8235 169.03H75.3938V175.46H81.8235V169.03Z" fill="black"/>
<path d="M131.763 169.03H125.333V175.46H131.763V169.03Z" fill="black"/>
<path d="M150.49 169.03H144.06V175.46H150.49V169.03Z" fill="black"/>
<path d="M162.975 169.03H156.545V175.46H162.975V169.03Z" fill="black"/>
<path d="M175.46 169.03H169.03V175.46H175.46V169.03Z" fill="black"/>
<path d="M56.8537 175.273H50.424V181.702H56.8537V175.273Z" fill="black"/>
<path d="M63.0963 175.273H56.6666V181.702H63.0963V175.273Z" fill="black"/>
<path d="M75.5811 175.273H69.1514V181.702H75.5811V175.273Z" fill="black"/>
<path d="M81.8235 175.273H75.3938V181.702H81.8235V175.273Z" fill="black"/>
<path d="M88.0659 175.273H81.6362V181.702H88.0659V175.273Z" fill="black"/>
<path d="M94.3084 175.273H87.8787V181.702H94.3084V175.273Z" fill="black"/>
<path d="M100.551 175.273H94.1212V181.702H100.551V175.273Z" fill="black"/>
<path d="M113.036 175.273H106.606V181.702H113.036V175.273Z" fill="black"/>
<path d="M125.52 175.273H119.091V181.702H125.52V175.273Z" fill="black"/>
<path d="M138.005 175.273H131.576V181.702H138.005V175.273Z" fill="black"/>
<path d="M150.49 175.273H144.06V181.702H150.49V175.273Z" fill="black"/>
<path d="M156.733 175.273H150.303V181.702H156.733V175.273Z" fill="black"/>
<path d="M162.975 175.273H156.545V181.702H162.975V175.273Z" fill="black"/>
<path d="M169.217 175.273H162.788V181.702H169.217V175.273Z" fill="black"/>
<path d="M0.484802 0.484802L0.484802 44.1818H44.1818V0.484802L0.484802 0.484802ZM37.9393 37.9394H6.72723V6.72723H37.9393V37.9394Z" fill="black"/>
<path d="M137.818 0.484802V44.1818H181.515V0.484802L137.818 0.484802ZM175.273 37.9394H144.06V6.72723H175.273V37.9394Z" fill="black"/>
<path d="M0.484741 137.818L0.484741 181.515H44.1817V137.818H0.484741ZM37.9393 175.273H6.72717V144.061H37.9393V175.273Z" fill="black"/>
<path d="M31.6968 12.9697H12.9695V31.6969H31.6968V12.9697Z" fill="black"/>
<path d="M169.03 12.9697H150.303V31.6969H169.03V12.9697Z" fill="black"/>
<path d="M31.6968 150.303H12.9695V169.03H31.6968V150.303Z" fill="black"/>
</svg>
