<svg width="40" height="40" viewBox="0 0 40 40" fill="none" xmlns="http://www.w3.org/2000/svg">
<rect width="40" height="40" rx="6" fill="white"/>
<path d="M20.0191 31.1111H19.988C19.8917 31.1111 10.2505 31.0921 7.81811 30.4181C7.16087 30.2374 6.56167 29.8838 6.0805 29.3925C5.59933 28.9012 5.25307 28.2896 5.07638 27.6189C4.63899 25.101 4.42777 22.5476 4.44535 19.9905C4.43406 17.4292 4.65099 14.8722 5.09348 12.351C5.27516 11.6792 5.62302 11.0663 6.10368 10.5711C6.58434 10.0759 7.18166 9.7151 7.83832 9.52329C10.2039 8.88892 19.5793 8.88892 19.9772 8.88892H20.0098C20.1077 8.88892 29.7737 8.90795 32.1813 9.58197C33.5164 9.9515 34.5593 11.0157 34.9199 12.378C35.3706 14.906 35.5836 17.4704 35.5525 20.0397C35.5634 22.5978 35.3459 25.1517 34.9028 27.6696C34.7238 28.3396 34.3762 28.9502 33.8944 29.4407C33.4126 29.9312 32.8134 30.2845 32.1564 30.4657C29.7939 31.1048 20.417 31.1111 20.0191 31.1111ZM16.9106 15.2406L16.9028 24.7563L25.0037 19.9984L16.9106 15.2406Z" fill="#C50F0F"/>
</svg>
