<svg width="58" height="59" viewBox="0 0 58 59" fill="none" xmlns="http://www.w3.org/2000/svg">
<path d="M29.0002 53.4163C42.347 53.4163 53.1668 42.5966 53.1668 29.2497C53.1668 15.9028 42.347 5.08301 29.0002 5.08301C15.6533 5.08301 4.8335 15.9028 4.8335 29.2497C4.8335 42.5966 15.6533 53.4163 29.0002 53.4163Z" stroke="white" stroke-width="2.6875" stroke-linecap="round" stroke-linejoin="round"/>
<path d="M19.3333 7.5H21.75C17.0375 21.6133 17.0375 36.8867 21.75 51H19.3333" stroke="white" stroke-width="2.6875" stroke-linecap="round" stroke-linejoin="round"/>
<path d="M36.25 7.5C40.9625 21.6133 40.9625 36.8867 36.25 51" stroke="white" stroke-width="2.6875" stroke-linecap="round" stroke-linejoin="round"/>
<path d="M7.25 38.9167V36.5C21.3633 41.2125 36.6367 41.2125 50.75 36.5V38.9167" stroke="white" stroke-width="2.6875" stroke-linecap="round" stroke-linejoin="round"/>
<path d="M7.25 22.0002C21.3633 17.2877 36.6367 17.2877 50.75 22.0002" stroke="white" stroke-width="2.6875" stroke-linecap="round" stroke-linejoin="round"/>
</svg>
