<svg width="32" height="32" viewBox="0 0 32 32" fill="none" xmlns="http://www.w3.org/2000/svg">
<g clip-path="url(#clip0_1_3163)">
<path d="M16 0C6.98675 0 0 6.60225 0 15.52C0 20.1846 1.91163 24.2152 5.025 26.9994C5.28625 27.2332 5.444 27.561 5.45475 27.9116L5.54187 30.7579C5.56975 31.6656 6.50738 32.2564 7.33813 31.8896L10.5139 30.4875C10.783 30.3688 11.0849 30.3467 11.3685 30.4249C12.8279 30.8261 14.381 31.0399 16 31.0399C25.0133 31.0399 32 24.4376 32 15.5199C32 6.60212 25.0133 0 16 0Z" fill="url(#paint0_radial_1_3163)"/>
<path d="M6.39212 20.0588L11.0921 12.6022C11.8396 11.4159 13.4406 11.1206 14.5624 11.9618L18.3005 14.7656C18.4674 14.8908 18.6706 14.9582 18.8793 14.9576C19.088 14.957 19.2908 14.8884 19.457 14.7622L24.5055 10.9307C25.1792 10.4193 26.059 11.2257 25.608 11.9413L20.908 19.3981C20.1604 20.5842 18.5592 20.8796 17.4376 20.0383L13.6994 17.2346C13.5324 17.1094 13.3293 17.0421 13.1207 17.0427C12.912 17.0433 12.7093 17.1118 12.5431 17.2379L7.49437 21.0694C6.82062 21.5807 5.94099 20.7744 6.39212 20.0588Z" fill="white"/>
</g>
<defs>
<radialGradient id="paint0_radial_1_3163" cx="0" cy="0" r="1" gradientUnits="userSpaceOnUse" gradientTransform="translate(6.15904 31.8288) scale(34.8672 34.8672)">
<stop stop-color="#0099FF"/>
<stop offset="0.60975" stop-color="#A033FF"/>
<stop offset="0.93482" stop-color="#FF5280"/>
<stop offset="1" stop-color="#FF7061"/>
</radialGradient>
<clipPath id="clip0_1_3163">
<rect width="32" height="32" fill="white"/>
</clipPath>
</defs>
</svg>
