<svg width="523" height="169" viewBox="0 0 523 169" fill="none" xmlns="http://www.w3.org/2000/svg">
<path fill-rule="evenodd" clip-rule="evenodd" d="M62.6792 43.9497L0 13.8479L6.65048 0L69.3296 30.1018C83.3111 36.8164 99.5858 36.8164 113.567 30.1018L150.802 12.2196C168.988 3.48604 190.156 3.48602 208.341 12.2196L244.178 29.4302C258.846 36.4748 275.994 36.1109 290.35 28.45L317.119 14.166C335.792 4.20178 358.095 3.72834 377.174 12.8911L412.344 29.7818C426.654 36.6543 443.346 36.4846 457.514 29.3225L515.381 0.0690479L522.312 13.7789L464.444 43.0323C446.017 52.3479 424.307 52.5686 405.694 43.6297L370.523 26.739C355.854 19.6944 338.707 20.0584 324.351 27.7192L297.582 42.0032C278.909 51.9674 256.606 52.4409 237.527 43.2781L201.691 26.0675C187.709 19.3528 171.434 19.3528 157.453 26.0675L120.218 43.9497C102.032 52.6832 80.8645 52.6832 62.6792 43.9497ZM62.6792 103.2L0 73.0984L6.65048 59.2505L69.3296 89.3523C83.3111 96.0669 99.5858 96.0669 113.567 89.3523L150.802 71.4701C168.988 62.7366 190.156 62.7365 208.341 71.4701L244.178 88.6807C258.846 95.7254 275.994 95.3614 290.35 87.7006L317.119 73.4165C335.792 63.4523 358.095 62.9789 377.174 72.1416L412.344 89.0323C426.654 95.9049 443.346 95.7351 457.514 88.5731L515.381 59.3196L522.312 73.0294L464.444 102.283C446.017 111.598 424.307 111.819 405.694 102.88L370.523 85.9896C355.854 78.9449 338.707 79.3089 324.351 86.9697L297.582 101.254C278.909 111.218 256.606 111.691 237.527 102.529L201.691 85.318C187.709 78.6034 171.434 78.6034 157.453 85.318L120.218 103.2C102.032 111.934 80.8645 111.934 62.6792 103.2ZM0 132.347L62.6792 162.449C80.8645 171.182 102.032 171.182 120.218 162.449L157.453 144.567C171.434 137.852 187.709 137.852 201.691 144.567L237.527 161.777C256.606 170.94 278.909 170.467 297.582 160.502L324.351 146.218C338.707 138.558 355.854 138.194 370.523 145.238L405.694 162.129C424.307 171.068 446.017 170.847 464.444 161.532L522.312 132.278L515.381 118.568L457.514 147.822C443.346 154.984 426.654 155.154 412.344 148.281L377.174 131.39C358.095 122.228 335.792 122.701 317.119 132.665L290.35 146.949C275.994 154.61 258.846 154.974 244.178 147.929L208.341 130.719C190.156 121.985 168.988 121.985 150.802 130.719L113.567 148.601C99.5858 155.316 83.3111 155.316 69.3296 148.601L6.65048 118.499L0 132.347Z" fill="url(#paint0_linear_1_3111)"/>
<defs>
<linearGradient id="paint0_linear_1_3111" x1="206.215" y1="199.12" x2="310.247" y2="-60.8892" gradientUnits="userSpaceOnUse">
<stop stop-color="#0958FA"/>
<stop offset="1" stop-color="#09FA32"/>
</linearGradient>
</defs>
</svg>
