<svg width="24" height="24" viewBox="0 0 24 24" fill="none" xmlns="http://www.w3.org/2000/svg">
<path d="M10.5 13.3201C10.7486 13.3201 10.9871 13.4189 11.1629 13.5947C11.3387 13.7705 11.4375 14.009 11.4375 14.2576C11.4375 14.5062 11.3387 14.7447 11.1629 14.9205C10.9871 15.0963 10.7486 15.1951 10.5 15.1951C10.2514 15.1951 10.0129 15.0963 9.8371 14.9205C9.66128 14.7447 9.56251 14.5062 9.56251 14.2576C9.56251 14.009 9.66128 13.7705 9.8371 13.5947C10.0129 13.4189 10.2514 13.3201 10.5 13.3201ZM10.5 6.0046C12.0465 6.0046 13.2795 7.2736 13.2795 8.9296C13.2795 9.8086 12.9585 10.2916 12.189 10.9066L11.7735 11.2291C11.4045 11.5201 11.28 11.6791 11.2545 11.9011L11.238 12.1351C11.2046 12.3195 11.1034 12.4848 10.9543 12.5983C10.8051 12.7118 10.6189 12.7654 10.4322 12.7484C10.2456 12.7315 10.072 12.6453 9.94577 12.5068C9.8195 12.3683 9.74966 12.1875 9.75001 12.0001C9.75001 11.1451 10.065 10.6741 10.824 10.0681L11.241 9.7456C11.673 9.4006 11.781 9.2326 11.781 8.9296C11.781 8.0926 11.208 7.5046 10.5 7.5046C9.75901 7.5046 9.21151 8.0536 9.22051 8.9221C9.2225 9.12102 9.14539 9.31257 9.00614 9.45463C8.93719 9.52497 8.85507 9.58104 8.76445 9.61964C8.67383 9.65824 8.5765 9.67862 8.47801 9.6796C8.27909 9.68159 8.08754 9.60448 7.94548 9.46524C7.80342 9.32599 7.7225 9.13602 7.72051 8.9371C7.70401 7.2301 8.92801 6.0046 10.5 6.0046ZM3.00001 10.5001C3.00062 8.87716 3.52766 7.29819 4.502 6.00027C5.47635 4.70234 6.84542 3.75549 8.40369 3.30186C9.96195 2.84823 11.6253 2.9123 13.1441 3.48446C14.6628 4.05661 15.955 5.10598 16.8266 6.47501C17.6982 7.84404 18.1022 9.45887 17.978 11.0771C17.8538 12.6952 17.208 14.2295 16.1376 15.4494C15.0672 16.6693 13.63 17.5092 12.0417 17.8428C10.4534 18.1764 8.79976 17.9858 7.32901 17.2996L3.89701 17.9851C3.77602 18.0092 3.65097 18.0031 3.53292 17.9673C3.41487 17.9315 3.30747 17.8671 3.22024 17.7799C3.13302 17.6926 3.06865 17.5852 3.03285 17.4672C2.99705 17.3491 2.99092 17.2241 3.01501 17.1031L3.70051 13.6696C3.23765 12.6772 2.99851 11.5952 3.00001 10.5001ZM10.5 4.5001C9.47299 4.49984 8.4631 4.76321 7.56701 5.26499C6.67091 5.76677 5.91862 6.49017 5.38215 7.36593C4.84567 8.24169 4.54297 9.2405 4.50303 10.2667C4.46308 11.293 4.68723 12.3123 5.15401 13.2271C5.23104 13.3778 5.25483 13.5502 5.22151 13.7161L4.70551 16.2946L7.28401 15.7786C7.44995 15.7453 7.62229 15.7691 7.77301 15.8461C8.58109 16.2579 9.47201 16.4811 10.3788 16.4989C11.2855 16.5168 12.1846 16.3289 13.0082 15.9493C13.8319 15.5697 14.5589 15.0083 15.1343 14.3074C15.7098 13.6064 16.1189 12.7841 16.3309 11.9023C16.5428 11.0204 16.5521 10.102 16.358 9.2161C16.1639 8.33017 15.7715 7.49976 15.2103 6.78731C14.6491 6.07486 13.9337 5.49891 13.1178 5.10276C12.302 4.7066 11.407 4.50055 10.5 4.5001ZM8.79001 19.3381C10.1228 20.4161 11.7858 21.0029 13.5 21.0001C14.631 21.0001 15.705 20.7496 16.6695 20.2996L20.103 20.9851C20.224 21.0092 20.3491 21.0031 20.4671 20.9673C20.5851 20.9315 20.6925 20.8671 20.7798 20.7799C20.867 20.6926 20.9314 20.5852 20.9672 20.4672C21.003 20.3491 21.0091 20.2241 20.985 20.1031L20.2995 16.6711C20.7495 15.7066 21 14.6311 21 13.5001C21.0025 11.7864 20.4157 10.124 19.338 8.7916C19.5517 9.90209 19.5553 11.0428 19.3485 12.1546C19.663 13.5291 19.4852 14.9703 18.846 16.2271C18.769 16.3778 18.7452 16.5502 18.7785 16.7161L19.2945 19.2946L16.7145 18.7786C16.549 18.7456 16.3773 18.7694 16.227 18.8461C14.97 19.4863 13.5279 19.6641 12.153 19.3486C11.0412 19.5553 9.9005 19.5518 8.79001 19.3381Z" fill="white"/>
</svg>
